<svg version="1.1" viewBox="0.0 0.0 211.61942257217848 105.01837270341207" fill="none" stroke="none" stroke-linecap="square" stroke-miterlimit="10" xmlns:xlink="http://www.w3.org/1999/xlink" xmlns="http://www.w3.org/2000/svg"><clipPath id="p.0"><path d="m0 0l211.61942 0l0 105.01837l-211.61942 0l0 -105.01837z" clip-rule="nonzero"/></clipPath><g clip-path="url(#p.0)"><path fill="#000000" fill-opacity="0.0" d="m0 0l211.61942 0l0 105.01837l-211.61942 0z" fill-rule="evenodd"/><path fill="#000000" fill-opacity="0.0" d="m3.5721784 2.4146981l204.47244 0l0 100.18898l-204.47244 0z" fill-rule="evenodd"/><path stroke="#000000" stroke-width="1.0" stroke-linejoin="round" stroke-linecap="butt" d="m3.5721784 2.4146981l204.47244 0l0 100.18898l-204.47244 0z" fill-rule="evenodd"/><path fill="#000000" d="m23.337803 17.88157l0 -1.8125l-10.328124 0l0 1.8125l4.062499 0l0 11.453125l2.171875 0l0 -11.453125l4.09375 0zm6.445572 11.640625q1.4375 0 2.453125 -0.5625q1.015625 -0.578125 1.5 -1.28125l-1.15625 -1.125q-0.453125 0.578125 -1.15625 0.890625q-0.703125 0.3125 -1.515625 0.3125q-0.59375 0 -1.09375 -0.203125q-0.484375 -0.203125 -0.859375 -0.5625q-0.359375 -0.34375 -0.578125 -0.78125q-0.203125 -0.4375 -0.296875 -1.078125l0 -0.046875l6.828125 0l0 -0.9375q0 -1.0625 -0.28125 -1.953125q-0.28125 -0.890625 -0.84375 -1.546875q-0.546875 -0.625 -1.375 -0.984375q-0.8125 -0.359375 -1.890625 -0.359375q-0.953125 0 -1.796875 0.359375q-0.84375 0.359375 -1.46875 1.015625q-0.640625 0.671875 -1.015625 1.609375q-0.359375 0.9375 -0.359375 2.09375l0 0.375q0 1.0 0.34375 1.875q0.359375 0.875 1.0 1.515625q0.65625 0.640625 1.5625 1.015625q0.90625 0.359375 2.0 0.359375zm-0.265625 -8.453125q0.546875 0 0.953125 0.1875q0.421875 0.1875 0.6875 0.484375q0.28125 0.328125 0.4375 0.75q0.15625 0.421875 0.15625 0.84375l0 0.15625l-4.625 0q0.09375 -0.5625 0.296875 -1.015625q0.21875 -0.453125 0.53125 -0.765625q0.296875 -0.3125 0.6875 -0.46875q0.40625 -0.171875 0.875 -0.171875zm13.304947 5.59375q0 0.234375 -0.109375 0.4375q-0.109375 0.1875 -0.3125 0.359375q-0.265625 0.203125 -0.6875 0.328125q-0.421875 0.109375 -0.984375 0.109375q-0.421875 0 -0.828125 -0.078125q-0.40625 -0.09375 -0.734375 -0.296875q-0.328125 -0.1875 -0.546875 -0.5q-0.203125 -0.3125 -0.234375 -0.78125l-2.109375 0q0 0.609375 0.28125 1.203125q0.296875 0.59375 0.859375 1.046875q0.5625 0.46875 1.390625 0.75q0.828125 0.28125 1.890625 0.28125q0.953125 0 1.734375 -0.21875q0.78125 -0.21875 1.34375 -0.609375q0.5625 -0.390625 0.859375 -0.9375q0.3125 -0.546875 0.3125 -1.203125q0 -0.671875 -0.296875 -1.15625q-0.28125 -0.5 -0.8125 -0.859375q-0.53125 -0.34375 -1.28125 -0.578125q-0.75 -0.25 -1.640625 -0.40625q-0.65625 -0.109375 -1.078125 -0.25q-0.421875 -0.140625 -0.65625 -0.296875q-0.25 -0.15625 -0.359375 -0.359375q-0.09375 -0.203125 -0.09375 -0.46875q0 -0.234375 0.109375 -0.453125q0.125 -0.234375 0.359375 -0.390625q0.234375 -0.1875 0.59375 -0.296875q0.375 -0.109375 0.875 -0.109375q0.53125 0 0.9375 0.15625q0.40625 0.140625 0.65625 0.375q0.21875 0.203125 0.328125 0.453125q0.125 0.25 0.125 0.515625l2.171875 0q0 -0.65625 -0.296875 -1.234375q-0.28125 -0.578125 -0.828125 -1.0q-0.546875 -0.421875 -1.328125 -0.65625q-0.78125 -0.234375 -1.765625 -0.234375q-0.921875 0 -1.671875 0.234375q-0.75 0.234375 -1.28125 0.640625q-0.53125 0.40625 -0.828125 0.953125q-0.28125 0.546875 -0.28125 1.140625q0 0.625 0.28125 1.109375q0.28125 0.46875 0.78125 0.8125q0.515625 0.375 1.21875 0.625q0.703125 0.25 1.5625 0.421875q0.6875 0.125 1.140625 0.28125q0.453125 0.140625 0.734375 0.3125q0.265625 0.171875 0.375 0.375q0.125 0.203125 0.125 0.453125zm9.117447 -9.59375l-2.1875 0l0 2.40625l-2.375 0l0 1.640625l2.375 0l0 4.84375q0 0.9375 0.25 1.625q0.25 0.671875 0.703125 1.09375q0.4375 0.4375 1.0625 0.640625q0.625 0.203125 1.375 0.203125q0.40625 0 0.8125 -0.046875q0.421875 -0.03125 0.8125 -0.109375q0.375 -0.0625 0.703125 -0.171875q0.34375 -0.109375 0.578125 -0.25l-0.234375 -1.5q-0.171875 0.03125 -0.40625 0.078125q-0.234375 0.046875 -0.515625 0.09375q-0.28125 0.046875 -0.578125 0.078125q-0.296875 0.015625 -0.59375 0.015625q-0.390625 0 -0.71875 -0.078125q-0.328125 -0.09375 -0.5625 -0.3125q-0.234375 -0.21875 -0.375 -0.578125q-0.125 -0.375 -0.125 -0.921875l0 -4.703125l3.703125 0l0 -1.640625l-3.703125 0l0 -2.40625zm22.313023 10.703125q-0.6875 0 -1.140625 -0.265625q-0.453125 -0.28125 -0.71875 -0.734375q-0.265625 -0.4375 -0.390625 -1.015625q-0.109375 -0.578125 -0.109375 -1.1875l0 -0.3125q0 -0.59375 0.109375 -1.171875q0.125 -0.578125 0.40625 -1.015625q0.265625 -0.453125 0.703125 -0.71875q0.453125 -0.28125 1.140625 -0.28125q0.453125 0 0.828125 0.15625q0.390625 0.140625 0.671875 0.40625q0.28125 0.265625 0.421875 0.625q0.15625 0.359375 0.15625 0.75l2.046875 0q0.015625 -0.8125 -0.296875 -1.5q-0.296875 -0.6875 -0.84375 -1.171875q-0.546875 -0.484375 -1.3125 -0.75q-0.765625 -0.28125 -1.65625 -0.28125q-1.125 0 -1.984375 0.390625q-0.84375 0.390625 -1.421875 1.0625q-0.578125 0.6875 -0.859375 1.59375q-0.28125 0.890625 -0.28125 1.90625l0 0.3125q0 1.015625 0.28125 1.921875q0.296875 0.890625 0.875 1.5625q0.5625 0.6875 1.40625 1.078125q0.859375 0.390625 2.0 0.390625q0.8125 0 1.546875 -0.265625q0.75 -0.265625 1.328125 -0.734375q0.5625 -0.46875 0.890625 -1.09375q0.34375 -0.640625 0.328125 -1.359375l-2.046875 0q0 0.375 -0.171875 0.6875q-0.171875 0.3125 -0.453125 0.53125q-0.28125 0.234375 -0.671875 0.359375q-0.375 0.125 -0.78125 0.125zm13.711197 -8.46875q-1.015625 0 -1.859375 0.46875q-0.84375 0.46875 -1.4375 1.296875l-0.015625 -0.21875l-0.09375 -1.375l-2.03125 0l0 9.859375l2.171875 0l0 -6.078125q0.171875 -0.4375 0.421875 -0.78125q0.265625 -0.34375 0.625 -0.5625q0.34375 -0.21875 0.78125 -0.328125q0.4375 -0.109375 0.984375 -0.109375q0.484375 0 0.96875 0.0625q0.484375 0.046875 0.984375 0.15625l0.3125 -2.15625q-0.28125 -0.09375 -0.78125 -0.15625q-0.5 -0.078125 -1.03125 -0.078125zm8.992447 10.21875q1.4375 0 2.453125 -0.5625q1.015625 -0.578125 1.5 -1.28125l-1.15625 -1.125q-0.453125 0.578125 -1.15625 0.890625q-0.703125 0.3125 -1.515625 0.3125q-0.59375 0 -1.09375 -0.203125q-0.484375 -0.203125 -0.859375 -0.5625q-0.359375 -0.34375 -0.578125 -0.78125q-0.203125 -0.4375 -0.296875 -1.078125l0 -0.046875l6.828125 0l0 -0.9375q0 -1.0625 -0.28125 -1.953125q-0.28125 -0.890625 -0.84375 -1.546875q-0.546875 -0.625 -1.375 -0.984375q-0.8125 -0.359375 -1.890625 -0.359375q-0.953125 0 -1.796875 0.359375q-0.84375 0.359375 -1.46875 1.015625q-0.640625 0.671875 -1.015625 1.609375q-0.359375 0.9375 -0.359375 2.09375l0 0.375q0 1.0 0.34375 1.875q0.359375 0.875 1.0 1.515625q0.65625 0.640625 1.5625 1.015625q0.90625 0.359375 2.0 0.359375zm-0.265625 -8.453125q0.546875 0 0.953125 0.1875q0.421875 0.1875 0.6875 0.484375q0.28125 0.328125 0.4375 0.75q0.15625 0.421875 0.15625 0.84375l0 0.15625l-4.625 0q0.09375 -0.5625 0.296875 -1.015625q0.21875 -0.453125 0.53125 -0.765625q0.296875 -0.3125 0.6875 -0.46875q0.40625 -0.171875 0.875 -0.171875zm6.570572 3.265625l0 0.1875q0 1.0625 0.265625 1.984375q0.28125 0.921875 0.78125 1.578125q0.5 0.671875 1.21875 1.0625q0.71875 0.375 1.625 0.375q0.84375 0 1.5 -0.3125q0.65625 -0.328125 1.140625 -0.90625l0.09375 1.03125l1.984375 0l0 -13.999999l-2.1875 0l0 5.062499q-0.46875 -0.53125 -1.09375 -0.8125q-0.609375 -0.28125 -1.421875 -0.28125q-0.90625 0 -1.640625 0.375q-0.71875 0.359375 -1.21875 1.015625q-0.515625 0.671875 -0.78125 1.59375q-0.265625 0.921875 -0.265625 2.046875zm2.171875 0.1875l0 -0.1875q0 -0.671875 0.125 -1.25q0.125 -0.59375 0.40625 -1.03125q0.265625 -0.453125 0.703125 -0.703125q0.4375 -0.265625 1.046875 -0.265625q0.71875 0 1.203125 0.328125q0.484375 0.328125 0.765625 0.875l0 4.234375q-0.28125 0.546875 -0.765625 0.875q-0.484375 0.328125 -1.21875 0.328125q-0.609375 0 -1.046875 -0.25q-0.421875 -0.25 -0.6875 -0.703125q-0.28125 -0.421875 -0.40625 -1.0q-0.125 -0.59375 -0.125 -1.25zm13.914322 5.0q1.4375 0 2.453125 -0.5625q1.015625 -0.578125 1.5 -1.28125l-1.15625 -1.125q-0.453125 0.578125 -1.15625 0.890625q-0.703125 0.3125 -1.515625 0.3125q-0.59375 0 -1.09375 -0.203125q-0.484375 -0.203125 -0.859375 -0.5625q-0.359375 -0.34375 -0.578125 -0.78125q-0.203125 -0.4375 -0.296875 -1.078125l0 -0.046875l6.828125 0l0 -0.9375q0 -1.0625 -0.28125 -1.953125q-0.28125 -0.890625 -0.84375 -1.546875q-0.546875 -0.625 -1.375 -0.984375q-0.8125 -0.359375 -1.890625 -0.359375q-0.953125 0 -1.796875 0.359375q-0.84375 0.359375 -1.46875 1.015625q-0.640625 0.671875 -1.015625 1.609375q-0.359375 0.9375 -0.359375 2.09375l0 0.375q0 1.0 0.34375 1.875q0.359375 0.875 1.0 1.515625q0.65625 0.640625 1.5625 1.015625q0.90625 0.359375 2.0 0.359375zm-0.265625 -8.453125q0.546875 0 0.953125 0.1875q0.421875 0.1875 0.6875 0.484375q0.28125 0.328125 0.4375 0.75q0.15625 0.421875 0.15625 0.84375l0 0.15625l-4.625 0q0.09375 -0.5625 0.296875 -1.015625q0.21875 -0.453125 0.53125 -0.765625q0.296875 -0.3125 0.6875 -0.46875q0.40625 -0.171875 0.875 -0.171875zm6.851822 8.265625l2.1874924 0l0 -7.03125q0.140625 -0.25 0.328125 -0.453125q0.203125 -0.21875 0.421875 -0.359375q0.28125 -0.1875 0.625 -0.296875q0.34375 -0.109375 0.75 -0.109375q0.46875 0 0.84375 0.109375q0.375 0.109375 0.640625 0.359375q0.265625 0.234375 0.40625 0.65625q0.140625 0.40625 0.140625 1.015625l0 6.109375l2.171875 0l0 -6.15625q0 -1.03125 -0.25 -1.765625q-0.25 -0.734375 -0.6875 -1.203125q-0.453125 -0.46875 -1.078125 -0.6875q-0.625 -0.21875 -1.390625 -0.21875q-0.5625 0 -1.09375 0.171875q-0.515625 0.15625 -0.953125 0.453125q-0.265625 0.1875 -0.515625 0.4375q-0.234375 0.234375 -0.4375 0.515625l-0.14061737 -1.40625l-1.96875 0l0 9.859375zm15.570564 -12.265625l-2.1875 0l0 2.40625l-2.375 0l0 1.640625l2.375 0l0 4.84375q0 0.9375 0.25 1.625q0.25 0.671875 0.703125 1.09375q0.4375 0.4375 1.0625 0.640625q0.625 0.203125 1.375 0.203125q0.40625 0 0.8125 -0.046875q0.421875 -0.03125 0.8125 -0.109375q0.375 -0.0625 0.703125 -0.171875q0.34375 -0.109375 0.578125 -0.25l-0.234375 -1.5q-0.171875 0.03125 -0.40625 0.078125q-0.234375 0.046875 -0.515625 0.09375q-0.28125 0.046875 -0.578125 0.078125q-0.296875 0.015625 -0.59375 0.015625q-0.390625 0 -0.71875 -0.078125q-0.328125 -0.09375 -0.5625 -0.3125q-0.234375 -0.21875 -0.375 -0.578125q-0.125 -0.375 -0.125 -0.921875l0 -4.703125l3.703125 0l0 -1.640625l-3.703125 0l0 -2.40625zm7.320572 2.40625l0 1.8125l3.046875 0l0 6.25l-3.046875 0l0 1.796875l8.125 0l0 -1.796875l-2.890625 0l0 -8.0625l-5.234375 0zm2.84375 -2.546875q0 0.34375 0.15625 0.609375q0.171875 0.25 0.5 0.359375q0.328125 0.09375 0.59375 0.046875q0.265625 -0.0625 0.453125 -0.234375q0.375 -0.09375 0.578125 -0.390625q0.203125 -0.296875 0.140625 -0.703125q-0.046875 -0.390625 -0.359375 -0.64062405q-0.296875 -0.25 -0.796875 -0.25q-0.28125 0 -0.515625 0.09375q-0.234375 0.078125 -0.40625 0.23437405q-0.171875 0.15625 -0.265625 0.390625q-0.078125 0.21875 -0.078125 0.484375zm14.148697 12.40625l2.21875 0l0 -0.15625q-0.171875 -0.375 -0.265625 -0.90625q-0.09375 -0.546875 -0.09375 -1.203125l0 -4.390625q0 -0.828125 -0.3125 -1.46875q-0.3125 -0.640625 -0.859375 -1.0625q-0.546875 -0.421875 -1.296875 -0.625q-0.75 -0.21875 -1.625 -0.21875q-0.953125 0 -1.71875 0.25q-0.75 0.25 -1.25 0.671875q-0.53125 0.421875 -0.8125 0.96875q-0.265625 0.546875 -0.28125 1.140625l2.1875 0q0 -0.28125 0.109375 -0.53125q0.109375 -0.25 0.328125 -0.4375q0.21875 -0.1875 0.546875 -0.296875q0.328125 -0.109375 0.78125 -0.109375q0.484375 0 0.859375 0.125q0.390625 0.125 0.65625 0.359375q0.234375 0.21875 0.359375 0.53125q0.140625 0.3125 0.140625 0.6875l0 0.671875l-1.578125 0q-1.0625 0 -1.90625 0.203125q-0.84375 0.1875 -1.421875 0.578125q-0.625 0.40625 -0.953125 1.03125q-0.3125 0.625 -0.3125 1.4375q0 0.625 0.25 1.171875q0.25 0.546875 0.703125 0.921875q0.453125 0.390625 1.078125 0.625q0.640625 0.21875 1.40625 0.21875q0.46875 0 0.875 -0.09375q0.421875 -0.09375 0.765625 -0.25q0.359375 -0.15625 0.640625 -0.375q0.296875 -0.21875 0.515625 -0.453125q0.046875 0.28125 0.109375 0.546875q0.0625 0.25 0.15625 0.4375zm-2.640625 -1.5625q-0.421875 0 -0.734375 -0.109375q-0.3125 -0.109375 -0.515625 -0.28125q-0.21875 -0.1875 -0.328125 -0.4375q-0.109375 -0.265625 -0.109375 -0.5625q0 -0.375 0.125 -0.65625q0.140625 -0.296875 0.421875 -0.515625q0.3125 -0.234375 0.828125 -0.359375q0.515625 -0.140625 1.21875 -0.140625l1.40625 0l0 1.8125q-0.109375 0.25 -0.328125 0.46875q-0.21875 0.21875 -0.53125 0.390625q-0.296875 0.171875 -0.671875 0.28125q-0.359375 0.109375 -0.78125 0.109375zm7.961197 -12.437499l0 1.828124l3.125 0l0 10.375l-3.125 0l0 1.796875l8.296875 0l0 -1.796875l-2.984375 0l0 -12.203124l-5.3125 0zm17.226822 11.328124q0 0.234375 -0.109375 0.4375q-0.109375 0.1875 -0.3125 0.359375q-0.265625 0.203125 -0.6875 0.328125q-0.421875 0.109375 -0.984375 0.109375q-0.421875 0 -0.828125 -0.078125q-0.40625 -0.09375 -0.734375 -0.296875q-0.328125 -0.1875 -0.546875 -0.5q-0.203125 -0.3125 -0.234375 -0.78125l-2.109375 0q0 0.609375 0.28125 1.203125q0.296875 0.59375 0.859375 1.046875q0.5625 0.46875 1.390625 0.75q0.828125 0.28125 1.890625 0.28125q0.953125 0 1.734375 -0.21875q0.78125 -0.21875 1.34375 -0.609375q0.5625 -0.390625 0.859375 -0.9375q0.3125 -0.546875 0.3125 -1.203125q0 -0.671875 -0.296875 -1.15625q-0.28125 -0.5 -0.8125 -0.859375q-0.53125 -0.34375 -1.28125 -0.578125q-0.75 -0.25 -1.640625 -0.40625q-0.65625 -0.109375 -1.078125 -0.25q-0.421875 -0.140625 -0.65625 -0.296875q-0.25 -0.15625 -0.359375 -0.359375q-0.09375 -0.203125 -0.09375 -0.46875q0 -0.234375 0.109375 -0.453125q0.125 -0.234375 0.359375 -0.390625q0.234375 -0.1875 0.59375 -0.296875q0.375 -0.109375 0.875 -0.109375q0.53125 0 0.9375 0.15625q0.40625 0.140625 0.65625 0.375q0.21875 0.203125 0.328125 0.453125q0.125 0.25 0.125 0.515625l2.171875 0q0 -0.65625 -0.296875 -1.234375q-0.28125 -0.578125 -0.828125 -1.0q-0.546875 -0.421875 -1.328125 -0.65625q-0.78125 -0.234375 -1.765625 -0.234375q-0.921875 0 -1.671875 0.234375q-0.75 0.234375 -1.28125 0.640625q-0.53125 0.40625 -0.828125 0.953125q-0.28125 0.546875 -0.28125 1.140625q0 0.625 0.28125 1.109375q0.28125 0.46875 0.78125 0.8125q0.515625 0.375 1.21875 0.625q0.703125 0.25 1.5625 0.421875q0.6875 0.125 1.140625 0.28125q0.453125 0.140625 0.734375 0.3125q0.265625 0.171875 0.375 0.375q0.125 0.203125 0.125 0.453125z" fill-rule="nonzero"/><path fill="#000000" d="m22.556553 51.26907l-2.15625 0l-0.015625 8.875q-0.03125 0.625 -0.171875 1.140625q-0.140625 0.515625 -0.421875 0.875q-0.28125 0.375 -0.703125 0.578125q-0.40625 0.1875 -0.953125 0.1875q-0.53125 0 -0.921875 -0.1875q-0.390625 -0.203125 -0.671875 -0.546875q-0.28125 -0.375 -0.4375 -0.890625q-0.14062405 -0.53125 -0.14062405 -1.15625l-0.015625 -8.875l-2.15625 0l-0.03125 8.875q0.015625 1.03125 0.328125 1.875q0.3125 0.84375 0.890625 1.453125q0.5625 0.5937462 1.359374 0.9218712q0.8125 0.328125 1.796875 0.328125q1.015625 0 1.828125 -0.328125q0.8125 -0.328125 1.40625 -0.9374962q0.5625 -0.59375 0.875 -1.4375q0.328125 -0.84375 0.328125 -1.875l-0.015625 -8.875zm9.070572 10.59375q0 0.234375 -0.109375 0.4375q-0.109375 0.1875 -0.3125 0.359375q-0.265625 0.203125 -0.6875 0.328125q-0.421875 0.109375 -0.984375 0.109375q-0.421875 0 -0.828125 -0.078125q-0.40625 -0.09375 -0.734375 -0.296875q-0.328125 -0.1875 -0.546875 -0.5q-0.203125 -0.3125 -0.234375 -0.78125l-2.109375 0q0 0.609375 0.28125 1.203125q0.296875 0.59375 0.859375 1.046875q0.5625 0.4687462 1.390625 0.7499962q0.828125 0.28125 1.890625 0.28125q0.953125 0 1.734375 -0.21875q0.78125 -0.21875 1.34375 -0.6093712q0.5625 -0.390625 0.859375 -0.9375q0.3125 -0.546875 0.3125 -1.203125q0 -0.671875 -0.296875 -1.15625q-0.28125 -0.5 -0.8125 -0.859375q-0.53125 -0.34375 -1.28125 -0.578125q-0.75 -0.25 -1.640625 -0.40625q-0.65625 -0.109375 -1.078125 -0.25q-0.421875 -0.140625 -0.65625 -0.296875q-0.25 -0.15625 -0.359375 -0.359375q-0.09375 -0.203125 -0.09375 -0.46875q0 -0.234375 0.109375 -0.453125q0.125 -0.234375 0.359375 -0.390625q0.234375 -0.1875 0.59375 -0.296875q0.375 -0.109375 0.875 -0.109375q0.53125 0 0.9375 0.15625q0.40625 0.140625 0.65625 0.375q0.21875 0.203125 0.328125 0.453125q0.125 0.25 0.125 0.515625l2.171875 0q0 -0.65625 -0.296875 -1.234375q-0.28125 -0.578125 -0.828125 -1.0q-0.546875 -0.421875 -1.328125 -0.65625q-0.78125 -0.234375 -1.765625 -0.234375q-0.921875 0 -1.671875 0.234375q-0.75 0.234375 -1.28125 0.640625q-0.53125 0.40625 -0.828125 0.953125q-0.28125 0.546875 -0.28125 1.140625q0 0.625 0.28125 1.109375q0.28125 0.46875 0.78125 0.8125q0.515625 0.375 1.21875 0.625q0.703125 0.25 1.5625 0.421875q0.6875 0.125 1.140625 0.28125q0.453125 0.140625 0.734375 0.3125q0.265625 0.171875 0.375 0.375q0.125 0.203125 0.125 0.453125zm9.351822 2.8593712q1.4375 0 2.453125 -0.5625q1.015625 -0.5781212 1.5 -1.2812462l-1.15625 -1.125q-0.453125 0.578125 -1.15625 0.890625q-0.703125 0.3125 -1.515625 0.3125q-0.59375 0 -1.09375 -0.203125q-0.484375 -0.203125 -0.859375 -0.5625q-0.359375 -0.34375 -0.578125 -0.78125q-0.203125 -0.4375 -0.296875 -1.078125l0 -0.046875l6.828125 0l0 -0.9375q0 -1.0625 -0.28125 -1.953125q-0.28125 -0.890625 -0.84375 -1.546875q-0.546875 -0.625 -1.375 -0.984375q-0.8125 -0.359375 -1.890625 -0.359375q-0.953125 0 -1.796875 0.359375q-0.84375 0.359375 -1.46875 1.015625q-0.640625 0.671875 -1.015625 1.609375q-0.359375 0.9375 -0.359375 2.09375l0 0.375q0 1.0 0.34375 1.875q0.359375 0.875 1.0 1.515625q0.65625 0.640625 1.5625 1.0156212q0.90625 0.359375 2.0 0.359375zm-0.265625 -8.453121q0.546875 0 0.953125 0.1875q0.421875 0.1875 0.6875 0.484375q0.28125 0.328125 0.4375 0.75q0.15625 0.421875 0.15625 0.84375l0 0.15625l-4.625 0q0.09375 -0.5625 0.296875 -1.015625q0.21875 -0.453125 0.53125 -0.765625q0.296875 -0.3125 0.6875 -0.46875q0.40625 -0.171875 0.875 -0.171875zm13.664322 -1.765625q-1.015625 0 -1.859375 0.46875q-0.84375 0.46875 -1.4375 1.296875l-0.015625 -0.21875l-0.09375 -1.375l-2.03125 0l0 9.859371l2.171875 0l0 -6.078121q0.171875 -0.4375 0.421875 -0.78125q0.265625 -0.34375 0.625 -0.5625q0.34375 -0.21875 0.78125 -0.328125q0.4375 -0.109375 0.984375 -0.109375q0.484375 0 0.96875 0.0625q0.484375 0.046875 0.984375 0.15625l0.3125 -2.15625q-0.28125 -0.09375 -0.78125 -0.15625q-0.5 -0.078125 -1.03125 -0.078125zm4.383072 10.031246l2.1875 0l0 -7.031246q0.140625 -0.25 0.328125 -0.453125q0.203125 -0.21875 0.421875 -0.359375q0.28125 -0.1875 0.625 -0.296875q0.34375 -0.109375 0.75 -0.109375q0.46875 0 0.84375 0.109375q0.3750038 0.109375 0.6406288 0.359375q0.265625 0.234375 0.40625 0.65625q0.140625 0.40625 0.140625 1.015625l0 6.109371l2.171875 0l0 -6.156246q0 -1.03125 -0.25 -1.765625q-0.25 -0.734375 -0.6875 -1.203125q-0.453125 -0.46875 -1.078125 -0.6875q-0.625 -0.21875 -1.3906288 -0.21875q-0.5625 0 -1.09375 0.171875q-0.515625 0.15625 -0.953125 0.453125q-0.265625 0.1875 -0.515625 0.4375q-0.234375 0.234375 -0.4375 0.515625l-0.140625 -1.40625l-1.96875 0l0 9.859371zm17.49245 0l2.21875 0l0 -0.15625q-0.171875 -0.375 -0.265625 -0.9062462q-0.09375 -0.546875 -0.09375 -1.203125l0 -4.390625q0 -0.828125 -0.3125 -1.46875q-0.3125 -0.640625 -0.859375 -1.0625q-0.546875 -0.421875 -1.296875 -0.625q-0.75 -0.21875 -1.625 -0.21875q-0.953125 0 -1.71875 0.25q-0.75 0.25 -1.25 0.671875q-0.53125 0.421875 -0.8125 0.96875q-0.265625 0.546875 -0.28125 1.140625l2.1875 0q0 -0.28125 0.109375 -0.53125q0.109375 -0.25 0.328125 -0.4375q0.21875 -0.1875 0.546875 -0.296875q0.328125 -0.109375 0.78125 -0.109375q0.484375 0 0.859375 0.125q0.390625 0.125 0.65625 0.359375q0.234375 0.21875 0.359375 0.53125q0.140625 0.3125 0.140625 0.6875l0 0.671875l-1.578125 0q-1.0625 0 -1.90625 0.203125q-0.84375 0.1875 -1.421875 0.578125q-0.625 0.40625 -0.953125 1.03125q-0.3125 0.625 -0.3125 1.4375q0 0.625 0.25 1.171875q0.25 0.546875 0.703125 0.921875q0.453125 0.3906212 1.078125 0.6249962q0.640625 0.21875 1.40625 0.21875q0.46875 0 0.875 -0.09375q0.421875 -0.09375 0.765625 -0.25q0.359375 -0.15625 0.640625 -0.375q0.296875 -0.21874619 0.515625 -0.4531212q0.046875 0.28125 0.109375 0.5468712q0.0625 0.25 0.15625 0.4375zm-2.640625 -1.5624962q-0.421875 0 -0.734375 -0.109375q-0.3125 -0.109375 -0.515625 -0.28125q-0.21875 -0.1875 -0.328125 -0.4375q-0.109375 -0.265625 -0.109375 -0.5625q0 -0.375 0.125 -0.65625q0.140625 -0.296875 0.421875 -0.515625q0.3125 -0.234375 0.828125 -0.359375q0.515625 -0.140625 1.21875 -0.140625l1.40625 0l0 1.8125q-0.109375 0.25 -0.328125 0.46875q-0.21875 0.21875 -0.53125 0.390625q-0.296875 0.171875 -0.671875 0.28125q-0.359375 0.109375 -0.78125 0.109375zm8.789322 -8.296875l-1.90625 0l0 9.859371l2.015625 0l0 -7.562496q0.046875 -0.140625 0.109375 -0.25q0.078125 -0.109375 0.171875 -0.1875q0.109375 -0.125 0.28125 -0.1875q0.171875 -0.0625 0.390625 -0.0625q0.203125 0 0.359375 0.0625q0.15625 0.046875 0.28125 0.171875q0.109375 0.125 0.171875 0.328125q0.0625 0.203125 0.0625 0.484375l0 7.203121l1.96875 0l0 -7.312496q0 -0.09375 0 -0.140625q0 -0.046875 0 -0.09375q0.03125 -0.15625 0.09375 -0.265625q0.078125 -0.125 0.1875 -0.21875q0.125 -0.109375 0.28125 -0.15625q0.15625 -0.0625 0.359375 -0.0625q0.203125 0 0.375 0.0625q0.171875 0.046875 0.28125 0.171875q0.125 0.125 0.1875 0.328125q0.0625 0.203125 0.0625 0.5l0 7.187496l2.0 0l0 -7.171871q0 -0.765625 -0.15625 -1.3125q-0.15625 -0.5625 -0.453125 -0.90625q-0.296875 -0.328125 -0.6875 -0.484375q-0.390625 -0.15625 -0.875 -0.15625q-0.359375 0 -0.671875 0.09375q-0.296875 0.078125 -0.546875 0.25q-0.1875 0.125 -0.359375 0.3125q-0.15625 0.171875 -0.28125 0.390625q-0.09375 -0.234375 -0.21875 -0.40625q-0.125 -0.1875 -0.296875 -0.3125q-0.203125 -0.171875 -0.5 -0.25q-0.28125 -0.078125 -0.65625 -0.078125q-0.703125 0 -1.203125 0.34375q-0.484375 0.328125 -0.765625 0.921875l-0.0625 -1.09375zm14.554947 10.046871q1.4375 0 2.453125 -0.5625q1.015625 -0.5781212 1.5 -1.2812462l-1.15625 -1.125q-0.453125 0.578125 -1.15625 0.890625q-0.703125 0.3125 -1.515625 0.3125q-0.59375 0 -1.09375 -0.203125q-0.484375 -0.203125 -0.859375 -0.5625q-0.359375 -0.34375 -0.578125 -0.78125q-0.203125 -0.4375 -0.296875 -1.078125l0 -0.046875l6.828125 0l0 -0.9375q0 -1.0625 -0.28125 -1.953125q-0.28125 -0.890625 -0.84375 -1.546875q-0.546875 -0.625 -1.375 -0.984375q-0.8125 -0.359375 -1.890625 -0.359375q-0.953125 0 -1.796875 0.359375q-0.84375 0.359375 -1.46875 1.015625q-0.640625 0.671875 -1.015625 1.609375q-0.359375 0.9375 -0.359375 2.09375l0 0.375q0 1.0 0.34375 1.875q0.359375 0.875 1.0 1.515625q0.65625 0.640625 1.5625 1.0156212q0.90625 0.359375 2.0 0.359375zm-0.265625 -8.453121q0.546875 0 0.953125 0.1875q0.421875 0.1875 0.6875 0.484375q0.28125 0.328125 0.4375 0.75q0.15625 0.421875 0.15625 0.84375l0 0.15625l-4.625 0q0.09375 -0.5625 0.296875 -1.015625q0.21875 -0.453125 0.53125 -0.765625q0.296875 -0.3125 0.6875 -0.46875q0.40625 -0.171875 0.875 -0.171875zm9.836197 6.953125q0 0.625 0.40625 1.0624962q0.421875 0.4375 1.171875 0.4375q0.734375 0 1.15625 -0.421875q0.421875 -0.4374962 0.421875 -1.0781212q0 -0.640625 -0.421875 -1.078125q-0.40625 -0.4375 -1.15625 -0.4375q-0.765625 0 -1.171875 0.453125q-0.40625 0.4375 -0.40625 1.0625zm0 -7.71875q0 0.625 0.40625 1.0625q0.421875 0.4375 1.171875 0.4375q0.734375 0 1.15625 -0.421875q0.421875 -0.4375 0.421875 -1.078125q0 -0.640625 -0.421875 -1.078125q-0.40625 -0.4375 -1.15625 -0.4375q-0.765625 0 -1.171875 0.453125q-0.40625 0.4375 -0.40625 1.0625zm25.703636 9.031246l2.21875 0l0 -0.15625q-0.171875 -0.375 -0.265625 -0.9062462q-0.09375 -0.546875 -0.09375 -1.203125l0 -4.390625q0 -0.828125 -0.3125 -1.46875q-0.3125 -0.640625 -0.859375 -1.0625q-0.546875 -0.421875 -1.296875 -0.625q-0.75 -0.21875 -1.625 -0.21875q-0.953125 0 -1.71875 0.25q-0.7499924 0.25 -1.2499924 0.671875q-0.53125 0.421875 -0.8125 0.96875q-0.265625 0.546875 -0.28125 1.140625l2.1874924 0q0 -0.28125 0.109375 -0.53125q0.109375 -0.25 0.328125 -0.4375q0.21875 -0.1875 0.546875 -0.296875q0.328125 -0.109375 0.78125 -0.109375q0.484375 0 0.859375 0.125q0.390625 0.125 0.65625 0.359375q0.234375 0.21875 0.359375 0.53125q0.140625 0.3125 0.140625 0.6875l0 0.671875l-1.578125 0q-1.0625 0 -1.90625 0.203125q-0.8437424 0.1875 -1.4218674 0.578125q-0.625 0.40625 -0.953125 1.03125q-0.3125 0.625 -0.3125 1.4375q0 0.625 0.25 1.171875q0.25 0.546875 0.703125 0.921875q0.453125 0.3906212 1.078125 0.6249962q0.6406174 0.21875 1.4062424 0.21875q0.46875 0 0.875 -0.09375q0.421875 -0.09375 0.765625 -0.25q0.359375 -0.15625 0.640625 -0.375q0.296875 -0.21874619 0.515625 -0.4531212q0.046875 0.28125 0.109375 0.5468712q0.0625 0.25 0.15625 0.4375zm-2.640625 -1.5624962q-0.421875 0 -0.734375 -0.109375q-0.3125 -0.109375 -0.515625 -0.28125q-0.21875 -0.1875 -0.328125 -0.4375q-0.10936737 -0.265625 -0.10936737 -0.5625q0 -0.375 0.12499237 -0.65625q0.140625 -0.296875 0.421875 -0.515625q0.3125 -0.234375 0.828125 -0.359375q0.515625 -0.140625 1.21875 -0.140625l1.40625 0l0 1.8125q-0.109375 0.25 -0.328125 0.46875q-0.21875 0.21875 -0.53125 0.390625q-0.296875 0.171875 -0.671875 0.28125q-0.359375 0.109375 -0.78125 0.109375zm7.258072 -3.4375l0 0.1875q0 1.0625 0.265625 1.984375q0.28125 0.921875 0.78125 1.578125q0.5 0.671875 1.21875 1.0624962q0.71875 0.375 1.625 0.375q0.84375 0 1.5 -0.3125q0.65625 -0.328125 1.140625 -0.9062462l0.09375 1.0312462l1.984375 0l0 -13.999996l-2.1875 0l0 5.0625q-0.46875 -0.53125 -1.09375 -0.8125q-0.609375 -0.28125 -1.421875 -0.28125q-0.90625 0 -1.640625 0.375q-0.71875 0.359375 -1.21875 1.015625q-0.515625 0.671875 -0.78125 1.59375q-0.265625 0.921875 -0.265625 2.046875zm2.171875 0.1875l0 -0.1875q0 -0.671875 0.125 -1.25q0.125 -0.59375 0.40625 -1.03125q0.265625 -0.453125 0.703125 -0.703125q0.4375 -0.265625 1.046875 -0.265625q0.71875 0 1.203125 0.328125q0.484375 0.328125 0.765625 0.875l0 4.234375q-0.28125 0.546875 -0.765625 0.875q-0.484375 0.328125 -1.21875 0.328125q-0.609375 0 -1.046875 -0.25q-0.421875 -0.25 -0.6875 -0.703125q-0.28125 -0.421875 -0.40625 -1.0q-0.125 -0.59375 -0.125 -1.25zm10.554947 -5.046875l-1.90625 0l0 9.859371l2.015625 0l0 -7.562496q0.046875 -0.140625 0.109375 -0.25q0.078125 -0.109375 0.171875 -0.1875q0.109375 -0.125 0.28125 -0.1875q0.171875 -0.0625 0.390625 -0.0625q0.203125 0 0.359375 0.0625q0.15625 0.046875 0.28125 0.171875q0.109375 0.125 0.171875 0.328125q0.0625 0.203125 0.0625 0.484375l0 7.203121l1.96875 0l0 -7.312496q0 -0.09375 0 -0.140625q0 -0.046875 0 -0.09375q0.03125 -0.15625 0.09375 -0.265625q0.078125 -0.125 0.1875 -0.21875q0.125 -0.109375 0.28125 -0.15625q0.15625 -0.0625 0.359375 -0.0625q0.203125 0 0.375 0.0625q0.171875 0.046875 0.28125 0.171875q0.125 0.125 0.1875 0.328125q0.0625 0.203125 0.0625 0.5l0 7.187496l2.0 0l0 -7.171871q0 -0.765625 -0.15625 -1.3125q-0.15625 -0.5625 -0.453125 -0.90625q-0.296875 -0.328125 -0.6875 -0.484375q-0.390625 -0.15625 -0.875 -0.15625q-0.359375 0 -0.671875 0.09375q-0.296875 0.078125 -0.546875 0.25q-0.1875 0.125 -0.359375 0.3125q-0.15625 0.171875 -0.28125 0.390625q-0.09375 -0.234375 -0.21875 -0.40625q-0.125 -0.1875 -0.296875 -0.3125q-0.203125 -0.171875 -0.5 -0.25q-0.28125 -0.078125 -0.65625 -0.078125q-0.703125 0 -1.203125 0.34375q-0.484375 0.328125 -0.765625 0.921875l-0.0625 -1.09375zm10.445572 0l0 1.8125l3.046875 0l0 6.25l-3.046875 0l0 1.7968712l8.125 0l0 -1.7968712l-2.890625 0l0 -8.0625l-5.234375 0zm2.84375 -2.546875q0 0.34375 0.15625 0.609375q0.171875 0.25 0.5 0.359375q0.328125 0.09375 0.59375 0.046875q0.265625 -0.0625 0.453125 -0.234375q0.375 -0.09375 0.578125 -0.390625q0.203125 -0.296875 0.140625 -0.703125q-0.046875 -0.390625 -0.359375 -0.640625q-0.296875 -0.25 -0.796875 -0.25q-0.28125 0 -0.515625 0.09375q-0.234375 0.078125 -0.40625 0.234375q-0.171875 0.15625 -0.265625 0.390625q-0.078125 0.21875 -0.078125 0.484375zm7.851822 12.406246l2.1875 0l0 -7.031246q0.140625 -0.25 0.328125 -0.453125q0.203125 -0.21875 0.421875 -0.359375q0.28125 -0.1875 0.625 -0.296875q0.34375 -0.109375 0.75 -0.109375q0.46875 0 0.84375 0.109375q0.375 0.109375 0.640625 0.359375q0.265625 0.234375 0.40625 0.65625q0.140625 0.40625 0.140625 1.015625l0 6.109371l2.171875 0l0 -6.156246q0 -1.03125 -0.25 -1.765625q-0.25 -0.734375 -0.6875 -1.203125q-0.453125 -0.46875 -1.078125 -0.6875q-0.625 -0.21875 -1.390625 -0.21875q-0.5625 0 -1.09375 0.171875q-0.515625 0.15625 -0.953125 0.453125q-0.265625 0.1875 -0.515625 0.4375q-0.234375 0.234375 -0.4375 0.515625l-0.140625 -1.40625l-1.96875 0l0 9.859371z" fill-rule="nonzero"/><path fill="#000000" d="m16.275303 81.872185l2.25 0q1.0 0 1.84375 -0.28125q0.84375 -0.296875 1.453125 -0.828125q0.609375 -0.53125 0.953125 -1.265625q0.34375 -0.75 0.34375 -1.671875q0 -0.953125 -0.34375 -1.71875q-0.34375 -0.765625 -0.953125 -1.3125q-0.609375 -0.53125 -1.453125 -0.8125q-0.84375 -0.296875 -1.84375 -0.3125l-4.437499 0l0 13.265625l2.187499 0l0 -5.0625zm0 -1.78125l0 -4.640625l2.25 0q0.5625 0.015625 1.0 0.1875q0.4375 0.171875 0.75 0.5q0.3125 0.3125 0.46875 0.75q0.15625 0.421875 0.15625 0.953125q0 0.484375 -0.15625 0.90625q-0.15625 0.40625 -0.46875 0.703125q-0.3125 0.296875 -0.75 0.46875q-0.4375 0.171875 -1.0 0.171875l-2.25 0zm15.195572 6.84375l2.21875 0l0 -0.15625q-0.171875 -0.375 -0.265625 -0.90625q-0.09375 -0.546875 -0.09375 -1.203125l0 -4.390625q0 -0.828125 -0.3125 -1.46875q-0.3125 -0.640625 -0.859375 -1.0625q-0.546875 -0.421875 -1.296875 -0.625q-0.75 -0.21875 -1.625 -0.21875q-0.953125 0 -1.71875 0.25q-0.75 0.25 -1.25 0.671875q-0.53125 0.421875 -0.8125 0.96875q-0.265625 0.546875 -0.28125 1.140625l2.1875 0q0 -0.28125 0.109375 -0.53125q0.109375 -0.25 0.328125 -0.4375q0.21875 -0.1875 0.546875 -0.296875q0.328125 -0.109375 0.78125 -0.109375q0.484375 0 0.859375 0.125q0.390625 0.125 0.65625 0.359375q0.234375 0.21875 0.359375 0.53125q0.140625 0.3125 0.140625 0.6875l0 0.671875l-1.578125 0q-1.0625 0 -1.90625 0.203125q-0.84375 0.1875 -1.421875 0.578125q-0.625 0.40625 -0.953125 1.03125q-0.3125 0.625 -0.3125 1.4375q0 0.625 0.25 1.171875q0.25 0.546875 0.703125 0.921875q0.453125 0.390625 1.078125 0.625q0.640625 0.21875 1.40625 0.21875q0.46875 0 0.875 -0.09375q0.421875 -0.09375 0.765625 -0.25q0.359375 -0.15625 0.640625 -0.375q0.296875 -0.21875 0.515625 -0.453125q0.046875 0.28125 0.109375 0.546875q0.0625 0.25 0.15625 0.4375zm-2.640625 -1.5625q-0.421875 0 -0.734375 -0.109375q-0.3125 -0.109375 -0.515625 -0.28125q-0.21875 -0.1875 -0.328125 -0.4375q-0.109375 -0.265625 -0.109375 -0.5625q0 -0.375 0.125 -0.65625q0.140625 -0.296875 0.421875 -0.515625q0.3125 -0.234375 0.828125 -0.359375q0.515625 -0.140625 1.21875 -0.140625l1.40625 0l0 1.8125q-0.109375 0.25 -0.328125 0.46875q-0.21875 0.21875 -0.53125 0.390625q-0.296875 0.171875 -0.671875 0.28125q-0.359375 0.109375 -0.78125 0.109375zm13.992447 -1.109375q0 0.234375 -0.109375 0.4375q-0.109375 0.1875 -0.3125 0.359375q-0.265625 0.203125 -0.6875 0.328125q-0.421875 0.109375 -0.984375 0.109375q-0.421875 0 -0.828125 -0.078125q-0.40625 -0.09375 -0.734375 -0.296875q-0.328125 -0.1875 -0.546875 -0.5q-0.203125 -0.3125 -0.234375 -0.78125l-2.109375 0q0 0.609375 0.28125 1.203125q0.296875 0.59375 0.859375 1.046875q0.5625 0.46875 1.390625 0.75q0.828125 0.28125 1.890625 0.28125q0.953125 0 1.734375 -0.21875q0.78125 -0.21875 1.34375 -0.609375q0.5625 -0.390625 0.859375 -0.9375q0.3125 -0.546875 0.3125 -1.203125q0 -0.671875 -0.296875 -1.15625q-0.28125 -0.5 -0.8125 -0.859375q-0.53125 -0.34375 -1.28125 -0.578125q-0.75 -0.25 -1.640625 -0.40625q-0.65625 -0.109375 -1.078125 -0.25q-0.421875 -0.140625 -0.65625 -0.296875q-0.25 -0.15625 -0.359375 -0.359375q-0.09375 -0.203125 -0.09375 -0.46875q0 -0.234375 0.109375 -0.453125q0.125 -0.234375 0.359375 -0.390625q0.234375 -0.1875 0.59375 -0.296875q0.375 -0.109375 0.875 -0.109375q0.53125 0 0.9375 0.15625q0.40625 0.140625 0.65625 0.375q0.21875 0.203125 0.328125 0.453125q0.125 0.25 0.125 0.515625l2.171875 0q0 -0.65625 -0.296875 -1.234375q-0.28125 -0.578125 -0.828125 -1.0q-0.546875 -0.421875 -1.328125 -0.65625q-0.78125 -0.234375 -1.765625 -0.234375q-0.921875 0 -1.671875 0.234375q-0.75 0.234375 -1.28125 0.640625q-0.53125 0.40625 -0.828125 0.953125q-0.28125 0.546875 -0.28125 1.140625q0 0.625 0.28125 1.109375q0.28125 0.46875 0.78125 0.8125q0.515625 0.375 1.21875 0.625q0.703125 0.25 1.5625 0.421875q0.6875 0.125 1.140625 0.28125q0.453125 0.140625 0.734375 0.3125q0.265625 0.171875 0.375 0.375q0.125 0.203125 0.125 0.453125zm11.195572 0q0 0.234375 -0.109375 0.4375q-0.109375 0.1875 -0.3125 0.359375q-0.265625 0.203125 -0.6875 0.328125q-0.421875 0.109375 -0.984375 0.109375q-0.421875 0 -0.828125 -0.078125q-0.40625 -0.09375 -0.734375 -0.296875q-0.328125 -0.1875 -0.546875 -0.5q-0.203125 -0.3125 -0.234375 -0.78125l-2.109375 0q0 0.609375 0.28125 1.203125q0.296875 0.59375 0.859375 1.046875q0.5625 0.46875 1.390625 0.75q0.828125 0.28125 1.890625 0.28125q0.953125 0 1.734375 -0.21875q0.78125 -0.21875 1.34375 -0.609375q0.5625 -0.390625 0.859375 -0.9375q0.3125 -0.546875 0.3125 -1.203125q0 -0.671875 -0.296875 -1.15625q-0.28125 -0.5 -0.8125 -0.859375q-0.53125 -0.34375 -1.28125 -0.578125q-0.75 -0.25 -1.640625 -0.40625q-0.65625 -0.109375 -1.078125 -0.25q-0.421875 -0.140625 -0.65625 -0.296875q-0.25 -0.15625 -0.359375 -0.359375q-0.09375 -0.203125 -0.09375 -0.46875q0 -0.234375 0.109375 -0.453125q0.125 -0.234375 0.359375 -0.390625q0.234375 -0.1875 0.59375 -0.296875q0.375 -0.109375 0.875 -0.109375q0.53125 0 0.9375 0.15625q0.40625 0.140625 0.65625 0.375q0.21875 0.203125 0.328125 0.453125q0.125 0.25 0.125 0.515625l2.171875 0q0 -0.65625 -0.296875 -1.234375q-0.28125 -0.578125 -0.828125 -1.0q-0.546875 -0.421875 -1.328125 -0.65625q-0.78125 -0.234375 -1.765625 -0.234375q-0.921875 0 -1.671875 0.234375q-0.75 0.234375 -1.28125 0.640625q-0.53125 0.40625 -0.828125 0.953125q-0.28125 0.546875 -0.28125 1.140625q0 0.625 0.28125 1.109375q0.28125 0.46875 0.78125 0.8125q0.515625 0.375 1.21875 0.625q0.703125 0.25 1.5625 0.421875q0.6875 0.125 1.140625 0.28125q0.453125 0.140625 0.734375 0.3125q0.265625 0.171875 0.375 0.375q0.125 0.203125 0.125 0.453125zm5.570572 2.671875l1.84375 0l1.25 -5.59375l0.21875 -1.21875l0.234375 1.21875l1.2656288 5.59375l1.859375 0l1.890625 -9.859375l-1.96875 0l-0.890625 6.015625l-0.171875 1.203125l-0.203125 -1.1875l-1.2812538 -6.03125l-1.4375 0l-1.28125 6.046875l-0.203125 1.140625l-0.15625 -1.140625l-0.90625 -6.046875l-1.96875 0l1.90625 9.859375zm9.976826 -5.015625l0 0.1875q0 1.078125 0.296875 2.0q0.3125 0.90625 0.90625 1.578125q0.59375 0.671875 1.4375 1.0625q0.859375 0.375 1.953125 0.375q1.0625 0 1.90625 -0.375q0.859375 -0.390625 1.453125 -1.0625q0.578125 -0.671875 0.890625 -1.578125q0.3125 -0.921875 0.3125 -2.0l0 -0.1875q0 -1.078125 -0.3125 -1.984375q-0.3125 -0.921875 -0.890625 -1.59375q-0.59375 -0.6875 -1.453125 -1.0625q-0.84375 -0.375 -1.9375 -0.375q-1.078125 0 -1.921875 0.375q-0.84375 0.375 -1.4375 1.0625q-0.59375 0.671875 -0.90625 1.59375q-0.296875 0.90625 -0.296875 1.984375zm2.171875 0.1875l0 -0.1875q0 -0.65625 0.140625 -1.234375q0.140625 -0.59375 0.4375 -1.046875q0.296875 -0.453125 0.75 -0.703125q0.453125 -0.265625 1.0625 -0.265625q0.640625 0 1.078125 0.265625q0.453125 0.25 0.765625 0.703125q0.28125 0.453125 0.421875 1.046875q0.140625 0.578125 0.140625 1.234375l0 0.1875q0 0.671875 -0.140625 1.265625q-0.140625 0.578125 -0.421875 1.03125q-0.296875 0.4375 -0.75 0.703125q-0.453125 0.265625 -1.0625 0.265625q-0.640625 0 -1.09375 -0.265625q-0.453125 -0.265625 -0.75 -0.703125q-0.296875 -0.453125 -0.4375 -1.03125q-0.140625 -0.59375 -0.140625 -1.265625zm16.226822 -5.203125q-1.015625 0 -1.859375 0.46875q-0.84375 0.46875 -1.4375 1.296875l-0.015625 -0.21875l-0.09375 -1.375l-2.03125 0l0 9.859375l2.171875 0l0 -6.078125q0.171875 -0.4375 0.421875 -0.78125q0.265625 -0.34375 0.625 -0.5625q0.34375 -0.21875 0.78125 -0.328125q0.4375 -0.109375 0.984375 -0.109375q0.484375 0 0.96875 0.0625q0.484375 0.046875 0.984375 0.15625l0.3125 -2.15625q-0.28125 -0.09375 -0.78125 -0.15625q-0.5 -0.078125 -1.03125 -0.078125zm4.101822 5.03125l0 0.1875q0 1.0625 0.265625 1.984375q0.28125 0.921875 0.78125 1.578125q0.5 0.671875 1.21875 1.0625q0.71875 0.375 1.625 0.375q0.84375 0 1.5 -0.3125q0.65625 -0.328125 1.140625 -0.90625l0.09375 1.03125l1.984375 0l0 -14.0l-2.1875 0l0 5.0625q-0.46875 -0.53125 -1.09375 -0.8125q-0.609375 -0.28125 -1.421875 -0.28125q-0.90625 0 -1.640625 0.375q-0.71875 0.359375 -1.21875 1.015625q-0.515625 0.671875 -0.78125 1.59375q-0.265625 0.921875 -0.265625 2.046875zm2.171875 0.1875l0 -0.1875q0 -0.671875 0.125 -1.25q0.125 -0.59375 0.40625 -1.03125q0.265625 -0.453125 0.703125 -0.703125q0.4375 -0.265625 1.046875 -0.265625q0.71875 0 1.203125 0.328125q0.484375 0.328125 0.765625 0.875l0 4.234375q-0.28125 0.546875 -0.765625 0.875q-0.484375 0.328125 -1.21875 0.328125q-0.609375 0 -1.046875 -0.25q-0.421875 -0.25 -0.6875 -0.703125q-0.28125 -0.421875 -0.40625 -1.0q-0.125 -0.59375 -0.125 -1.25zm12.289322 3.5q0 0.625 0.40625 1.0625q0.421875 0.4375 1.171875 0.4375q0.734375 0 1.15625 -0.421875q0.421875 -0.4375 0.421875 -1.078125q0 -0.640625 -0.421875 -1.078125q-0.40625 -0.4375 -1.15625 -0.4375q-0.765625 0 -1.171875 0.453125q-0.40625 0.4375 -0.40625 1.0625zm0 -7.71875q0 0.625 0.40625 1.0625q0.421875 0.4375 1.171875 0.4375q0.734375 0 1.15625 -0.421875q0.421875 -0.4375 0.421875 -1.078125q0 -0.640625 -0.421875 -1.078125q-0.40625 -0.4375 -1.15625 -0.4375q-0.765625 0 -1.171875 0.453125q-0.40625 0.4375 -0.40625 1.0625zm26.219261 -1.0q-1.015625 0 -1.859375 0.46875q-0.84375 0.46875 -1.4375 1.296875l-0.015625 -0.21875l-0.09375 -1.375l-2.0312424 0l0 9.859375l2.1718674 0l0 -6.078125q0.171875 -0.4375 0.421875 -0.78125q0.265625 -0.34375 0.625 -0.5625q0.34375 -0.21875 0.78125 -0.328125q0.4375 -0.109375 0.984375 -0.109375q0.484375 0 0.96875 0.0625q0.484375 0.046875 0.984375 0.15625l0.3125 -2.15625q-0.28125 -0.09375 -0.78125 -0.15625q-0.5 -0.078125 -1.03125 -0.078125zm3.992447 5.015625l0 0.1875q0 1.078125 0.296875 2.0q0.3125 0.90625 0.90625 1.578125q0.59375 0.671875 1.4375 1.0625q0.859375 0.375 1.953125 0.375q1.0625 0 1.90625 -0.375q0.859375 -0.390625 1.453125 -1.0625q0.578125 -0.671875 0.890625 -1.578125q0.3125 -0.921875 0.3125 -2.0l0 -0.1875q0 -1.078125 -0.3125 -1.984375q-0.3125 -0.921875 -0.890625 -1.59375q-0.59375 -0.6875 -1.453125 -1.0625q-0.84375 -0.375 -1.9375 -0.375q-1.078125 0 -1.921875 0.375q-0.84375 0.375 -1.4375 1.0625q-0.59375 0.671875 -0.90625 1.59375q-0.296875 0.90625 -0.296875 1.984375zm2.171875 0.1875l0 -0.1875q0 -0.65625 0.140625 -1.234375q0.140625 -0.59375 0.4375 -1.046875q0.296875 -0.453125 0.75 -0.703125q0.453125 -0.265625 1.0625 -0.265625q0.640625 0 1.078125 0.265625q0.453125 0.25 0.765625 0.703125q0.28125 0.453125 0.421875 1.046875q0.140625 0.578125 0.140625 1.234375l0 0.1875q0 0.671875 -0.140625 1.265625q-0.140625 0.578125 -0.421875 1.03125q-0.296875 0.4375 -0.75 0.703125q-0.453125 0.265625 -1.0625 0.265625q-0.640625 0 -1.09375 -0.265625q-0.453125 -0.265625 -0.75 -0.703125q-0.296875 -0.453125 -0.4375 -1.03125q-0.140625 -0.59375 -0.140625 -1.265625zm9.133072 -0.171875l0 0.1875q0 1.0625 0.265625 1.984375q0.28125 0.921875 0.78125 1.578125q0.5 0.671875 1.21875 1.0625q0.71875 0.375 1.625 0.375q0.84375 0 1.5 -0.3125q0.65625 -0.328125 1.140625 -0.90625l0.09375 1.03125l1.984375 0l0 -14.0l-2.1875 0l0 5.0625q-0.46875 -0.53125 -1.09375 -0.8125q-0.609375 -0.28125 -1.421875 -0.28125q-0.90625 0 -1.640625 0.375q-0.71875 0.359375 -1.21875 1.015625q-0.515625 0.671875 -0.78125 1.59375q-0.265625 0.921875 -0.265625 2.046875zm2.171875 0.1875l0 -0.1875q0 -0.671875 0.125 -1.25q0.125 -0.59375 0.40625 -1.03125q0.265625 -0.453125 0.703125 -0.703125q0.4375 -0.265625 1.046875 -0.265625q0.71875 0 1.203125 0.328125q0.484375 0.328125 0.765625 0.875l0 4.234375q-0.28125 0.546875 -0.765625 0.875q-0.484375 0.328125 -1.21875 0.328125q-0.609375 0 -1.046875 -0.25q-0.421875 -0.25 -0.6875 -0.703125q-0.28125 -0.421875 -0.40625 -1.0q-0.125 -0.59375 -0.125 -1.25zm15.601822 4.8125l2.21875 0l0 -0.15625q-0.171875 -0.375 -0.265625 -0.90625q-0.09375 -0.546875 -0.09375 -1.203125l0 -4.390625q0 -0.828125 -0.3125 -1.46875q-0.3125 -0.640625 -0.859375 -1.0625q-0.546875 -0.421875 -1.296875 -0.625q-0.75 -0.21875 -1.625 -0.21875q-0.953125 0 -1.71875 0.25q-0.75 0.25 -1.25 0.671875q-0.53125 0.421875 -0.8125 0.96875q-0.265625 0.546875 -0.28125 1.140625l2.1875 0q0 -0.28125 0.109375 -0.53125q0.109375 -0.25 0.328125 -0.4375q0.21875 -0.1875 0.546875 -0.296875q0.328125 -0.109375 0.78125 -0.109375q0.484375 0 0.859375 0.125q0.390625 0.125 0.65625 0.359375q0.234375 0.21875 0.359375 0.53125q0.140625 0.3125 0.140625 0.6875l0 0.671875l-1.578125 0q-1.0625 0 -1.90625 0.203125q-0.84375 0.1875 -1.421875 0.578125q-0.625 0.40625 -0.953125 1.03125q-0.3125 0.625 -0.3125 1.4375q0 0.625 0.25 1.171875q0.25 0.546875 0.703125 0.921875q0.453125 0.390625 1.078125 0.625q0.640625 0.21875 1.40625 0.21875q0.46875 0 0.875 -0.09375q0.421875 -0.09375 0.765625 -0.25q0.359375 -0.15625 0.640625 -0.375q0.296875 -0.21875 0.515625 -0.453125q0.046875 0.28125 0.109375 0.546875q0.0625 0.25 0.15625 0.4375zm-2.640625 -1.5625q-0.421875 0 -0.734375 -0.109375q-0.3125 -0.109375 -0.515625 -0.28125q-0.21875 -0.1875 -0.328125 -0.4375q-0.109375 -0.265625 -0.109375 -0.5625q0 -0.375 0.125 -0.65625q0.140625 -0.296875 0.421875 -0.515625q0.3125 -0.234375 0.828125 -0.359375q0.515625 -0.140625 1.21875 -0.140625l1.40625 0l0 1.8125q-0.109375 0.25 -0.328125 0.46875q-0.21875 0.21875 -0.53125 0.390625q-0.296875 0.171875 -0.671875 0.28125q-0.359375 0.109375 -0.78125 0.109375z" fill-rule="nonzero"/></g></svg>