<?xml version="1.0" encoding="UTF-8"?>
<svg width="1273px" height="400px" viewBox="0 0 1273 400" version="1.1" xmlns="http://www.w3.org/2000/svg" xmlns:xlink="http://www.w3.org/1999/xlink">
    <!-- Generator: Sketch 59.1 (86144) - https://sketch.com -->
    <title>WHITE</title>
    <desc>Created with Sketch.</desc>
    <g id="WHITE" stroke="none" stroke-width="1" fill="none" fill-rule="evenodd">
        <path d="M352.656,170.53 L398.396,174.535 C399.454,182.875 400,191.372 400,200 C400,310.458 310.458,400 200,400 C168.45,400 138.607,392.695 112.069,379.686 L112.069,379.686 L115.511,330.5 C139.834,346.281 168.847,355.447 200.001,355.447 C285.853,355.447 355.448,285.853 355.448,200 C355.448,189.925 354.486,180.071 352.656,170.53 L352.656,170.53 Z M4.33,241.59 L51.385,245.705 C61.516,278.685 82.322,306.989 109.771,326.59 L109.771,326.59 L106.265,376.72 C54.818,349.376 16.73,300.223 4.33,241.59 L4.33,241.59 Z M895.64,337.388 C898.318013,337.388 900.761989,337.998994 902.972,339.221 C905.182011,340.443006 906.923994,342.119989 908.198,344.252 C909.472006,346.384011 910.109,348.736987 910.109,351.311 C910.109,353.911013 909.472006,356.276989 908.198,358.409 C906.923994,360.541011 905.182011,362.230994 902.972,363.479 C900.761989,364.727006 898.318013,365.351 895.64,365.351 C892.961987,365.351 890.518011,364.727006 888.308,363.479 C886.097989,362.230994 884.356006,360.541011 883.082,358.409 C881.807994,356.276989 881.171,353.911013 881.171,351.311 C881.171,348.736987 881.807994,346.384011 883.082,344.252 C884.356006,342.119989 886.097989,340.443006 888.308,339.221 C890.518011,337.998994 892.961987,337.388 895.64,337.388 Z M632.152,337.7 L632.152,353.807 C632.152,356.095011 632.801993,357.895493 634.102,359.2085 C635.402006,360.521507 637.156989,361.178 639.367,361.178 C641.551011,361.178 643.279994,360.528007 644.554,359.228 C645.828006,357.927994 646.465,356.121012 646.465,353.807 L646.465,337.7 L651.067,337.7 L651.067,353.807 C651.067,356.173012 650.599005,358.220491 649.663,359.9495 C648.726995,361.678509 647.375009,363.010995 645.607,363.947 C643.838991,364.883005 641.759012,365.351 639.367,365.351 C636.948988,365.351 634.849509,364.883005 633.0685,363.947 C631.287491,363.010995 629.922505,361.678509 628.9735,359.9495 C628.024495,358.220491 627.55,356.173012 627.55,353.807 L627.55,337.7 L632.152,337.7 Z M529.393,337.388 C532.071013,337.388 534.514989,337.998994 536.725,339.221 C538.935011,340.443006 540.676994,342.119989 541.951,344.252 C543.225006,346.384011 543.862,348.736987 543.862,351.311 C543.862,353.911013 543.225006,356.276989 541.951,358.409 C540.676994,360.541011 538.935011,362.230994 536.725,363.479 C534.514989,364.727006 532.071013,365.351 529.393,365.351 C526.714987,365.351 524.271011,364.727006 522.061,363.479 C519.850989,362.230994 518.109006,360.541011 516.835,358.409 C515.560994,356.276989 514.924,353.911013 514.924,351.311 C514.924,348.736987 515.560994,346.384011 516.835,344.252 C518.109006,342.119989 519.850989,340.443006 522.061,339.221 C524.271011,337.998994 526.714987,337.388 529.393,337.388 Z M500.678,337.388 C502.60201,337.388 504.480491,337.771496 506.3135,338.5385 C508.146509,339.305504 509.725993,340.351993 511.052,341.678 L508.361,345.032 C507.372995,343.939995 506.203007,343.082003 504.851,342.458 C503.498993,341.833997 502.134007,341.522 500.756,341.522 C498.961991,341.522 497.317507,341.950996 495.8225,342.809 C494.327493,343.667004 493.151004,344.843493 492.293,346.3385 C491.434996,347.833507 491.006,349.477991 491.006,351.272 C491.006,353.040009 491.441496,354.671493 492.3125,356.1665 C493.183504,357.661507 494.359993,358.844496 495.842,359.7155 C497.324007,360.586504 498.961991,361.022 500.756,361.022 C502.108007,361.022 503.453493,360.729503 504.7925,360.1445 C506.131507,359.559497 507.320995,358.760005 508.361,357.746 L511.091,360.788 C509.686993,362.192007 508.049009,363.303496 506.177,364.1225 C504.304991,364.941504 502.420009,365.351 500.522,365.351 C497.895987,365.351 495.497511,364.727006 493.3265,363.479 C491.155489,362.230994 489.446006,360.541011 488.198,358.409 C486.949994,356.276989 486.326,353.911013 486.326,351.311 C486.326,348.736987 486.956494,346.384011 488.2175,344.252 C489.478506,342.119989 491.207489,340.443006 493.4045,339.221 C495.601511,337.998994 498.025987,337.388 500.678,337.388 Z M664.221,337.7 L678.846,357.434 L678.846,337.7 L683.37,337.7 L683.37,365 L678.846,365 L664.299,345.344 L664.299,365 L659.697,365 L659.697,337.7 L664.221,337.7 Z M921.547,337.7 L936.172,357.434 L936.172,337.7 L940.696,337.7 L940.696,365 L936.172,365 L921.625,345.344 L921.625,365 L917.023,365 L917.023,337.7 L921.547,337.7 Z M835.898,337.7 L835.898,365 L831.296,365 L831.296,337.7 L835.898,337.7 Z M810.264,337.7 C812.968014,337.7 815.392489,338.284994 817.5375,339.455 C819.682511,340.625006 821.359494,342.24999 822.5685,344.33 C823.777506,346.41001 824.382,348.749987 824.382,351.35 C824.382,353.950013 823.771006,356.28349 822.549,358.3505 C821.326994,360.41751 819.637011,362.042494 817.479,363.2255 C815.320989,364.408506 812.877014,365 810.147,365 L799.071,365 L799.071,337.7 L810.264,337.7 Z M790.987,337.7 L790.987,341.834 L776.089,341.834 L776.089,349.244 L789.427,349.244 L789.427,353.339 L776.089,353.339 L776.089,360.866 L791.455,360.866 L791.455,365 L771.487,365 L771.487,337.7 L790.987,337.7 Z M863.716,337.7 L863.716,341.834 L855.058,341.834 L855.058,365 L850.456,365 L850.456,341.834 L841.837,341.834 L841.837,337.7 L863.716,337.7 Z M732.036,337.7 L739.836,350.999 L747.48,337.7 L752.16,337.7 L742.137,355.913 L742.137,365 L737.574,365 L737.574,356.069 L727.395,337.7 L732.036,337.7 Z M725.005,337.7 L725.005,341.834 L716.347,341.834 L716.347,365 L711.745,365 L711.745,341.834 L703.126,341.834 L703.126,337.7 L725.005,337.7 Z M697.187,337.7 L697.187,365 L692.585,365 L692.585,337.7 L697.187,337.7 Z M874.257,337.7 L874.257,365 L869.655,365 L869.655,337.7 L874.257,337.7 Z M594.779,337.7 L604.217,355.952 L613.577,337.7 L618.92,337.7 L618.92,365 L614.669,365 L614.63,344.525 L605.66,362.153 L602.735,362.153 L593.687,344.525 L593.687,365 L589.436,365 L589.436,337.7 L594.779,337.7 Z M556.119,337.7 L565.557,355.952 L574.917,337.7 L580.26,337.7 L580.26,365 L576.009,365 L575.97,344.525 L567,362.153 L564.075,362.153 L555.027,344.525 L555.027,365 L550.776,365 L550.776,337.7 L556.119,337.7 Z M895.679,341.561 C893.910991,341.561 892.273008,341.996496 890.765,342.8675 C889.256992,343.738504 888.061004,344.914993 887.177,346.397 C886.292996,347.879007 885.851,349.516991 885.851,351.311 C885.851,353.105009 886.299496,354.755992 887.1965,356.264 C888.093504,357.772008 889.289493,358.967996 890.7845,359.852 C892.279507,360.736004 893.910991,361.178 895.679,361.178 C897.447009,361.178 899.071993,360.736004 900.554,359.852 C902.036007,358.967996 903.212496,357.772008 904.0835,356.264 C904.954504,354.755992 905.39,353.105009 905.39,351.311 C905.39,349.516991 904.954504,347.879007 904.0835,346.397 C903.212496,344.914993 902.036007,343.738504 900.554,342.8675 C899.071993,341.996496 897.447009,341.561 895.679,341.561 Z M529.432,341.561 C527.663991,341.561 526.026008,341.996496 524.518,342.8675 C523.009992,343.738504 521.814004,344.914993 520.93,346.397 C520.045996,347.879007 519.604,349.516991 519.604,351.311 C519.604,353.105009 520.052496,354.755992 520.9495,356.264 C521.846504,357.772008 523.042493,358.967996 524.5375,359.852 C526.032507,360.736004 527.663991,361.178 529.432,361.178 C531.200009,361.178 532.824993,360.736004 534.307,359.852 C535.789007,358.967996 536.965496,357.772008 537.8365,356.264 C538.707504,354.755992 539.143,353.105009 539.143,351.311 C539.143,349.516991 538.707504,347.879007 537.8365,346.397 C536.965496,344.914993 535.789007,343.738504 534.307,342.8675 C532.824993,341.996496 531.200009,341.561 529.432,341.561 Z M810.186,341.834 L803.673,341.834 L803.673,360.866 L810.381,360.866 C812.123009,360.866 813.708993,360.463004 815.139,359.657 C816.569007,358.850996 817.693496,357.726507 818.5125,356.2835 C819.331504,354.840493 819.741,353.209009 819.741,351.389 C819.741,349.568991 819.318504,347.931007 818.4735,346.475 C817.628496,345.018993 816.478007,343.881504 815.022,343.0625 C813.565993,342.243496 811.954009,341.834 810.186,341.834 Z M774.141771,100 C791.888625,100 807.896161,104.262 822.165381,112.784 C836.434601,121.306 847.294317,133.202 854.784605,148.472 C862.237823,163.743 866,181.002 866,200.319 C866,219.922 862.059483,237.465 854.180453,252.947 C846.301423,268.43 835.120093,280.113 820.709604,288.068 C806.264047,296.022 790.681322,300 773.999499,300 C755.897969,300 739.713094,295.632 725.443874,286.825 C711.175656,278.018 700.350005,266.015 693.00299,250.816 C685.655974,235.618 682,219.531 682,202.556 C682,170.49 690.554318,145.383 707.69702,127.237 C724.840723,109.091 746.987972,100 774.141771,100 Z M978.071998,102 C993.201254,102 1004.75198,102.956768 1012.75917,104.799468 C1023.88483,107.386432 1033.41725,112.026605 1041.31843,118.757898 C1051.59296,127.473562 1059.2451,138.563685 1064.34786,152.096109 C1069.44862,165.629531 1072,181.077486 1072,198.43698 C1072,213.245427 1070.26474,226.389757 1066.82723,237.833056 C1063.35471,249.276355 1058.92605,258.736282 1053.54025,266.211839 C1048.11944,273.723312 1042.20256,279.603592 1035.7896,283.890589 C1029.37665,288.213502 1021.61749,291.472897 1012.54714,293.669771 C1003.47679,295.901563 993.024227,297 981.261474,297 L981.261474,297 L911,297 L911,102 Z M571.237596,102 C588.192044,102 601.102615,103.770859 609.969308,107.279654 C618.80096,110.786453 625.859473,116.986954 631.143846,125.87916 C636.430222,134.772363 639.089429,144.585416 639.089429,155.356229 C639.089429,169.243753 634.692126,180.934415 625.966602,190.430209 C617.206036,199.960922 603.691737,206.018756 585.425707,208.569791 C591.632193,212.042669 596.349883,215.443716 599.577776,218.808847 C606.424033,226.106781 613.092075,234.539062 619.54686,244.104694 L619.54686,244.104694 L652,297 L622.987009,297 L597.768594,256.575531 C590.390695,244.91879 584.290338,235.991666 579.537606,229.791165 C574.784874,223.626581 570.493698,219.30369 566.733163,216.859406 C562.97463,214.415122 559.143009,212.715097 555.277347,211.758334 C552.403881,211.155743 547.722235,210.83649 541.232408,210.83649 L541.232408,210.83649 L511.970115,210.83649 L511.970115,297 L487,297 L487,102 Z M1195.09634,102 L1273,297 L1246.55953,297 L1223.58898,235.778849 L1140.37705,235.778849 L1117.44047,297 L1091,297 L1168.90366,102 L1195.09634,102 Z M774.284042,122.727 C755.89897,122.727 740.067771,128.906 726.828515,141.193 C713.58926,153.516 706.987667,174.077 706.987667,202.876 C706.987667,225.958 713.339784,244.104 726.047025,257.386 C738.754265,270.668 754.690665,277.272 773.85823,277.272 C793.38047,277.272 809.459142,270.596 822.094245,257.172 C834.694281,243.785 841.012333,224.787 841.012333,200.141 C841.012333,184.587 838.31619,170.986 832.919896,159.339 C827.525606,147.727 819.610507,138.707 809.245735,132.315 C798.845896,125.922 787.203688,122.727 774.284042,122.727 Z M977.789956,124.674094 L935.943718,124.674094 L935.943718,274.323911 L978.462056,274.323911 C991.572011,274.323911 1001.88255,273.119721 1009.35866,270.710343 C1016.79877,268.300964 1022.75066,264.935816 1027.21532,260.577985 C1033.45225,254.414366 1038.34098,246.15863 1041.8135,235.777852 C1045.28602,225.43299 1047.05728,212.856335 1047.05728,198.046891 C1047.05728,177.569671 1043.62077,161.803459 1036.78275,150.820086 C1029.94373,139.83871 1021.65349,132.433987 1011.87504,128.677752 C1004.78798,126.020951 993.450291,124.674094 977.789956,124.674094 L977.789956,124.674094 Z M200,0 C235.708,0 269.231,9.358 298.25,25.755 L298.25,25.755 L294.686,76.705 C268.467,56.54 235.634,44.553 200,44.553 C114.147,44.553 44.553,114.147 44.553,200 C44.553,213.66 46.315,226.907 49.625,239.53 L49.625,239.53 L3.135,235.465 C1.076,223.955 0,212.103 0,200 C0,89.542 89.542,0 200,0 Z M1181.999,124.675 L1181.63939,126.182823 C1178.9566,137.262934 1175.42963,148.69626 1171.02877,160.421683 L1171.02877,160.421683 L1148.83652,213.104756 L1215.13051,213.104756 L1196.08746,162.264383 L1181.999,124.675 Z M572.267838,124.673978 L511.970115,124.673978 L511.970115,188.162512 L566.16648,188.162512 C577.694383,188.162512 586.810377,186.993247 593.549505,184.583881 C600.253591,182.174515 605.359749,178.348462 608.870984,173.069806 C612.348177,167.79115 614.121316,162.051572 614.121316,155.816153 C614.121316,146.746362 610.75025,139.30676 604.047166,133.460431 C597.344082,127.614102 586.73829,124.673978 572.267838,124.673978 L572.267838,124.673978 Z M304.025,29.145 C353.038,59.049 388.173,109.451 397.525,168.436 L397.525,168.436 L351.351,164.395 C343.621,131.413 325.394,102.474 300.38,81.3 L300.38,81.3 Z" id="Combined-Shape" fill="#FFFFFF" fill-rule="nonzero"></path>
    </g>
</svg>