<svg xmlns="http://www.w3.org/2000/svg" viewBox="0 0 134.83 30"><defs><style>.cls-1{fill:#fff;}.cls-2{fill:#e4142b;}.cls-3{fill:#25a6d6;}.cls-4{opacity:0.3;}</style></defs><g id="Layer_2" data-name="Layer 2"><g id="logos"><path class="cls-1" d="M55.53,8.37v6.51H53.31c-2.22,0-3.81.51-4.8,1.54A6.3,6.3,0,0,0,47,21V29.4H40v-21h6.79v2.27h1.14q1.29-2.27,5.38-2.27Z"/><path class="cls-1" d="M67.62,7.85a11.12,11.12,0,0,1,8.15,3,10.77,10.77,0,0,1,3,8.05,10.75,10.75,0,0,1-3,8,11.13,11.13,0,0,1-8.15,3,11.21,11.21,0,0,1-8.15-3,10.66,10.66,0,0,1-3.09-8,10.68,10.68,0,0,1,3.09-8A11.2,11.2,0,0,1,67.62,7.85Zm0,16.33a3.57,3.57,0,0,0,3.11-1.47,6.39,6.39,0,0,0,1.06-3.82,6.4,6.4,0,0,0-1.06-3.83,3.57,3.57,0,0,0-3.11-1.47,3.62,3.62,0,0,0-3.15,1.47,6.4,6.4,0,0,0-1.06,3.83,6.39,6.39,0,0,0,1.06,3.82A3.62,3.62,0,0,0,67.62,24.18Z"/><path class="cls-1" d="M89.09,7.85a6.22,6.22,0,0,1,5.26,2.3h1.13V0h7V29.4H95.73V27.62H94.59a6.64,6.64,0,0,1-5.5,2.31,7.6,7.6,0,0,1-6.38-3.06,12.68,12.68,0,0,1-2.35-8,12.56,12.56,0,0,1,2.39-8A7.61,7.61,0,0,1,89.09,7.85Zm-.68,14.84a3.48,3.48,0,0,0,3.11,1.49,3.66,3.66,0,0,0,3.18-1.49,6.41,6.41,0,0,0,1.07-3.8,6.43,6.43,0,0,0-1.07-3.81,3.69,3.69,0,0,0-3.18-1.49,3.5,3.5,0,0,0-3.11,1.49,6.63,6.63,0,0,0-1,3.81A6.62,6.62,0,0,0,88.41,22.69Z"/><path class="cls-1" d="M115.38,7.85q10,0,10,8.29V29.4H119V27.78h-1.13a8.07,8.07,0,0,1-10.9.06,6.91,6.91,0,0,1-2-5A6.54,6.54,0,0,1,107.17,18c1.48-1.41,3.7-2.11,6.63-2.11h4.86v-.36c0-1.78-1-2.67-2.87-2.67-1.7,0-2.63.61-2.79,1.82h-7a6,6,0,0,1,2.69-4.91A11.06,11.06,0,0,1,115.38,7.85Zm3.28,13.26V19.86h-3.4a4.15,4.15,0,0,0-2.39.62,2.08,2.08,0,0,0-.89,1.8c0,1.65,1,2.47,3,2.47a3.55,3.55,0,0,0,2.69-1A3.62,3.62,0,0,0,118.66,21.11Z"/><path class="cls-2" d="M132.85,22.76a4.11,4.11,0,0,1,1.44,1.43,3.53,3.53,0,0,1,.54,1.92,3.6,3.6,0,0,1-.54,1.94,4.14,4.14,0,0,1-1.44,1.44,3.47,3.47,0,0,1-1.91.51,4,4,0,0,1-1.94-.51,3.83,3.83,0,0,1-1.44-1.44,3.57,3.57,0,0,1-.51-1.94,3.71,3.71,0,0,1,.51-1.92A4.11,4.11,0,0,1,129,22.76a3.67,3.67,0,0,1,1.94-.55A4.26,4.26,0,0,1,132.85,22.76Z"/><path class="cls-3" d="M27.14,23.81A15,15,0,1,1,23.81,2.86,15,15,0,0,1,27.14,23.81Z"/><ellipse class="cls-4" cx="15" cy="16.67" rx="5" ry="6.25"/><circle class="cls-1" cx="15" cy="15" r="5"/></g></g></svg>