<svg width="100" height="100" viewBox="0 0 100 100" fill="none" xmlns="http://www.w3.org/2000/svg">
<circle cx="50" cy="50" r="45" fill="#25A6D6"/>
<g style="mix-blend-mode:multiply">
<circle cx="36.5" cy="49" r="16.5" fill="#BBBBBB" fill-opacity="0.6"/>
</g>
<g style="mix-blend-mode:multiply">
<circle cx="33.25" cy="68.25" r="9.25" fill="#BABABA"/>
</g>
<g style="mix-blend-mode:multiply">
<circle cx="15" cy="65" r="15" fill="#D9D9D9" fill-opacity="0.5"/>
</g>
<path fill-rule="evenodd" clip-rule="evenodd" d="M39.7688 27.8902C37.2244 27.8902 35.1156 29.9995 35.1156 32.659C35.1156 35.3184 37.2244 37.4277 39.7688 37.4277C42.3132 37.4277 44.422 35.3184 44.422 32.659C44.422 29.9995 42.3132 27.8902 39.7688 27.8902ZM32.2255 32.659C32.2255 28.4547 35.5773 25 39.7688 25C43.9604 25 47.3122 28.4547 47.3122 32.659C47.3122 36.8632 43.9604 40.3179 39.7688 40.3179C35.5773 40.3179 32.2255 36.8632 32.2255 32.659Z" fill="white"/>
<path fill-rule="evenodd" clip-rule="evenodd" d="M39.7688 62.5722C37.2244 62.5722 35.1156 64.6816 35.1156 67.341C35.1156 70.0005 37.2244 72.1098 39.7688 72.1098C42.3132 72.1098 44.422 70.0005 44.422 67.341C44.422 64.6816 42.3132 62.5722 39.7688 62.5722ZM32.2255 67.341C32.2255 63.1368 35.5773 59.6821 39.7688 59.6821C43.9604 59.6821 47.3122 63.1368 47.3122 67.341C47.3122 71.5452 43.9604 75 39.7688 75C35.5773 75 32.2255 71.5452 32.2255 67.341Z" fill="white"/>
<path fill-rule="evenodd" clip-rule="evenodd" d="M60.1156 45.2312C57.4819 45.2312 55.3468 47.3663 55.3468 50C55.3468 52.6338 57.4819 54.7688 60.1156 54.7688C62.7494 54.7688 64.8844 52.6338 64.8844 50C64.8844 47.3663 62.7494 45.2312 60.1156 45.2312ZM52.4567 50C52.4567 45.7701 55.8857 42.3411 60.1156 42.3411C64.3455 42.3411 67.7746 45.7701 67.7746 50C67.7746 54.23 64.3455 57.659 60.1156 57.659C55.8857 57.659 52.4567 54.2299 52.4567 50Z" fill="white"/>
<path d="M33.6705 31.0694H25V33.9596H33.6705V31.0694Z" fill="white"/>
<path d="M74.133 31.0694H51.0116V33.9596H74.133V31.0694Z" fill="white"/>
<path d="M48.1214 48.4104H25V51.3006H48.1214V48.4104Z" fill="white"/>
<path d="M74.1329 48.4104H65.4624V51.3006H74.1329V48.4104Z" fill="white"/>
<path d="M33.6705 65.7515H25V68.6416H33.6705V65.7515Z" fill="white"/>
<path d="M74.133 65.7515H51.0116V68.6416H74.133V65.7515Z" fill="white"/>
</svg>
