<svg width="100" height="100" viewBox="0 0 100 100" fill="none" xmlns="http://www.w3.org/2000/svg">
<circle cx="50" cy="50" r="45" fill="#25A6D6"/>
<g style="mix-blend-mode:multiply">
<circle cx="36.5" cy="49" r="16.5" fill="#BBBBBB" fill-opacity="0.6"/>
</g>
<g style="mix-blend-mode:multiply">
<circle cx="33.25" cy="68.25" r="9.25" fill="#BABABA"/>
</g>
<g style="mix-blend-mode:multiply">
<circle cx="15" cy="65" r="15" fill="#D9D9D9" fill-opacity="0.5"/>
</g>
<path d="M48.229 69.3229V56.4062H52.7082V60.625H69.2186V65.1041H52.7082V69.3229H48.229ZM30.729 65.1041V60.625H44.0623V65.1041H30.729ZM39.5832 56.4583V52.2396H30.729V47.7604H39.5832V43.5416H44.0623V56.4583H39.5832ZM48.229 52.2396V47.7604H69.2186V52.2396H48.229ZM55.8853 43.5937V30.6771H60.3644V34.8958H69.2186V39.375H60.3644V43.5937H55.8853ZM30.729 39.375V34.8958H51.7186V39.375H30.729Z" fill="white"/>
</svg>
