<svg width="200" height="200" viewBox="0 0 200 200" fill="none" xmlns="http://www.w3.org/2000/svg">
<circle cx="100" cy="100" r="90" fill="#25A6D6"/>
<g style="mix-blend-mode:multiply">
<circle cx="60" cy="60" r="60" fill="#D9D9D9" fill-opacity="0.5"/>
</g>
<g style="mix-blend-mode:multiply">
<ellipse cx="67" cy="10" rx="67" ry="10" transform="matrix(1 0 0 -1 33 190)" fill="#D9D9D9"/>
</g>
<g style="mix-blend-mode:multiply">
<circle cx="150" cy="100" r="50" fill="#BBBBBB" fill-opacity="0.5"/>
</g>
<path d="M75.8656 83.75H112.708V75.4167C112.708 71.875 111.472 68.8368 108.998 66.3021C106.524 63.7674 103.521 62.5 99.9875 62.5C96.4542 62.5 93.4549 63.7674 90.9896 66.3021C88.5243 68.8368 87.2917 71.875 87.2917 75.4167H78.3333C78.3333 69.3111 80.442 64.1389 84.6594 59.9C88.8767 55.6611 93.9903 53.5417 100 53.5417C106.01 53.5417 111.123 55.6611 115.341 59.9C119.558 64.1389 121.667 69.3111 121.667 75.4167V83.75H124.134C127.045 83.75 129.48 84.7288 131.439 86.6864C133.396 88.6448 134.375 91.0795 134.375 93.9906V133.926C134.375 136.837 133.396 139.272 131.439 141.23C129.48 143.188 127.045 144.167 124.134 144.167H75.8656C72.9545 144.167 70.5198 143.188 68.5615 141.23C66.6038 139.272 65.625 136.837 65.625 133.926V93.9906C65.625 91.0795 66.6038 88.6448 68.5615 86.6864C70.5198 84.7288 72.9545 83.75 75.8656 83.75ZM75.8656 135.208H124.134C124.509 135.208 124.816 135.088 125.056 134.848C125.297 134.608 125.417 134.3 125.417 133.926V93.9906C125.417 93.6163 125.297 93.309 125.056 93.0687C124.816 92.8285 124.509 92.7083 124.134 92.7083H75.8656C75.4913 92.7083 75.184 92.8285 74.9438 93.0687C74.7035 93.309 74.5833 93.6163 74.5833 93.9906V133.926C74.5833 134.3 74.7035 134.608 74.9438 134.848C75.184 135.088 75.4913 135.208 75.8656 135.208ZM100.017 122.917C102.447 122.917 104.51 122.063 106.206 120.356C107.902 118.649 108.75 116.58 108.75 114.15C108.75 111.72 107.897 109.657 106.19 107.96C104.482 106.265 102.413 105.417 99.9833 105.417C97.5535 105.417 95.4903 106.27 93.7938 107.977C92.0979 109.685 91.25 111.753 91.25 114.183C91.25 116.613 92.1035 118.676 93.8104 120.373C95.5181 122.069 97.5868 122.917 100.017 122.917Z" fill="white"/>
</svg>
