<svg width="100" height="100" viewBox="0 0 100 100" fill="none" xmlns="http://www.w3.org/2000/svg">
<circle cx="50" cy="50" r="45" fill="#25A6D6"/>
<g style="mix-blend-mode:multiply">
<circle cx="31.5" cy="49.5" r="31.5" fill="#BBBBBB" fill-opacity="0.3"/>
</g>
<g style="mix-blend-mode:multiply">
<circle cx="39" cy="74" r="26" fill="#D9D9D9" fill-opacity="0.5"/>
</g>
<path d="M41.1604 43.1932V38.7661H70.375V43.1932H41.1604ZM41.1604 52.1875V47.7604H70.375V52.1875H41.1604ZM41.1604 61.1818V56.7547H70.375V61.1818H41.1604ZM34.0891 43.626C33.3908 43.626 32.8056 43.3673 32.3333 42.85C31.8611 42.3326 31.625 41.7198 31.625 41.0114C31.625 40.3149 31.8611 39.7205 32.3333 39.2281C32.8056 38.7357 33.3908 38.4896 34.0891 38.4896C34.787 38.4896 35.372 38.7338 35.8443 39.2224C36.3168 39.7106 36.5531 40.3156 36.5531 41.0375C36.5531 41.7285 36.3168 42.3326 35.8443 42.85C35.372 43.3673 34.787 43.626 34.0891 43.626ZM34.0891 52.5479C33.3908 52.5479 32.8056 52.3017 32.3333 51.8094C31.8611 51.3173 31.625 50.7316 31.625 50.0521C31.625 49.2896 31.8611 48.659 32.3333 48.1604C32.8056 47.6614 33.3908 47.412 34.0891 47.412C34.787 47.412 35.372 47.6614 35.8443 48.1604C36.3168 48.659 36.5531 49.2896 36.5531 50.0521C36.5531 50.7316 36.3168 51.3173 35.8443 51.8094C35.372 52.3017 34.787 52.5479 34.0891 52.5479ZM34.0891 61.4583C33.3908 61.4583 32.8056 61.1996 32.3333 60.6823C31.8611 60.1649 31.625 59.5522 31.625 58.8443C31.625 58.1474 31.8611 57.5528 32.3333 57.0604C32.8056 56.568 33.3908 56.3219 34.0891 56.3219C34.787 56.3219 35.372 56.568 35.8443 57.0604C36.3168 57.5528 36.5531 58.1474 36.5531 58.8443C36.5531 59.5522 36.3168 60.1649 35.8443 60.6823C35.372 61.1996 34.787 61.4583 34.0891 61.4583Z" fill="white"/>
</svg>
