<svg width="950" height="1920" viewBox="0 0 950 1920" fill="none" xmlns="http://www.w3.org/2000/svg">
<g clip-path="url(#clip0_421_5696)">
<path opacity="0.3" d="M1736.97 1523.84C1625.45 1677.51 1470.87 1794.66 1292.77 1860.48C1114.68 1926.29 921.06 1937.82 736.411 1893.6C551.762 1849.38 384.373 1751.39 255.412 1612.04C126.45 1472.68 41.7085 1298.22 11.9028 1110.7C-17.9029 923.183 8.56602 731.039 87.9624 558.566C167.359 386.092 296.117 241.036 457.953 141.74C619.79 42.4443 807.438 -6.63104 997.166 0.71997C1186.89 8.07098 1370.18 71.5181 1523.85 183.038C1729.91 332.579 1868.13 557.852 1908.09 809.3C1948.06 1060.75 1886.51 1317.77 1736.97 1523.84Z" fill="#25A6D6"/>
<path opacity="0.4" d="M1512.73 1382.88C1429.09 1498.13 1313.15 1586 1179.58 1635.36C1046.01 1684.72 900.795 1693.37 762.308 1660.2C623.821 1627.03 498.28 1553.55 401.559 1449.03C304.838 1344.51 241.281 1213.66 218.927 1073.03C196.573 932.387 216.425 788.279 275.972 658.924C335.519 529.569 432.087 420.777 553.465 346.305C674.843 271.833 815.578 235.027 957.874 240.54C1100.17 246.053 1237.64 293.639 1352.89 377.279C1507.43 489.434 1611.09 658.389 1641.07 846.975C1671.05 1035.56 1624.88 1228.33 1512.73 1382.88Z" fill="#25A6D6"/>
<path opacity="0.5" d="M1367.33 1270.11C1306 1354.63 1220.98 1419.06 1123.03 1455.26C1025.07 1491.46 918.583 1497.8 817.026 1473.48C715.469 1449.16 623.405 1395.27 552.476 1318.62C481.548 1241.98 434.94 1146.02 418.547 1042.88C402.153 939.751 416.711 834.071 460.379 739.211C504.047 644.351 574.864 564.57 663.874 509.957C752.885 455.344 856.091 428.353 960.441 432.396C1064.79 436.439 1165.6 471.335 1250.12 532.671C1363.45 614.919 1439.47 738.819 1461.45 877.115C1483.43 1015.41 1449.58 1156.78 1367.33 1270.11Z" fill="#25A6D6"/>
<path d="M1270.79 1195.14C1226.18 1256.6 1164.35 1303.46 1093.11 1329.79C1021.87 1356.12 944.424 1360.73 870.564 1343.04C796.705 1325.35 729.749 1286.16 678.165 1230.42C626.58 1174.67 592.683 1104.89 580.761 1029.88C568.839 954.873 579.426 878.016 611.185 809.026C642.944 740.037 694.447 682.014 759.181 642.296C823.916 602.578 898.975 582.948 974.866 585.888C1050.76 588.828 1124.07 614.207 1185.54 658.815C1267.96 718.632 1323.25 808.741 1339.24 909.32C1355.22 1009.9 1330.6 1112.71 1270.79 1195.14Z" fill="#25A6D6"/>
<path opacity="0.3" d="M950.4 1161.6C1019.32 1161.6 1075.2 1088.53 1075.2 998.4C1075.2 908.267 1019.32 835.2 950.4 835.2C881.474 835.2 825.6 908.267 825.6 998.4C825.6 1088.53 881.474 1161.6 950.4 1161.6Z" fill="black"/>
<path d="M950.4 1084.8C1019.32 1084.8 1075.2 1028.93 1075.2 960C1075.2 891.075 1019.32 835.2 950.4 835.2C881.474 835.2 825.6 891.075 825.6 960C825.6 1028.93 881.474 1084.8 950.4 1084.8Z" fill="white"/>
</g>
<defs>
<clipPath id="clip0_421_5696">
<rect width="950" height="1920" fill="white"/>
</clipPath>
</defs>
</svg>
