<svg width="150" height="150" viewBox="0 0 150 150" fill="none" xmlns="http://www.w3.org/2000/svg">
<circle cx="75" cy="75" r="67.5" fill="#25A6D6"/>
<g style="mix-blend-mode:multiply">
<circle cx="54.75" cy="73.5" r="24.75" fill="#BBBBBB" fill-opacity="0.3"/>
</g>
<g style="mix-blend-mode:multiply">
<ellipse cx="117.5" cy="114" rx="17.5" ry="17" fill="#BBBBBB" fill-opacity="0.4"/>
</g>
<g style="mix-blend-mode:multiply">
<circle cx="49.875" cy="102.375" r="13.875" fill="#BABABA" fill-opacity="0.6"/>
</g>
<g style="mix-blend-mode:multiply">
<circle cx="34" cy="34" r="34" fill="#D9D9D9" fill-opacity="0.5"/>
</g>
<g style="mix-blend-mode:multiply">
<circle cx="127.5" cy="87.5" r="22.5" fill="#D9D9D9"/>
</g>
<g style="mix-blend-mode:multiply">
<ellipse cx="50" cy="7.5" rx="50" ry="7.5" transform="matrix(1 0 0 -1 25 142.5)" fill="#D9D9D9"/>
</g>
<path d="M73.7816 106C69.526 106 65.5388 105.184 61.8199 103.553C58.101 101.921 54.8591 99.7044 52.0941 96.9033C49.3291 94.1017 47.1413 90.8169 45.5307 87.0492C43.9207 83.2814 43.1157 79.265 43.1157 75C43.1157 70.735 43.9207 66.7186 45.5307 62.9508C47.1413 59.1831 49.3291 55.8983 52.0941 53.0967C54.8591 50.2956 58.101 48.0792 61.8199 46.4475C65.5388 44.8158 69.526 44 73.7816 44C78.571 44 83.1199 44.9925 87.4282 46.9775C91.7366 48.9625 95.2988 51.8844 98.1149 55.7433V47.6792H105.282V68.7692H84.1924V61.6025H93.7432C91.4999 58.3247 88.6188 55.7661 85.0999 53.9267C81.581 52.0867 77.8082 51.1667 73.7816 51.1667C67.2354 51.1667 61.6824 53.5 57.1224 58.1667C52.5618 62.8333 50.2816 68.4583 50.2816 75.0417C50.2816 81.625 52.5871 87.2361 57.1982 91.875C61.8093 96.5139 67.3927 98.8333 73.9482 98.8333C79.9821 98.8333 85.2438 96.8975 89.7332 93.0258C94.2232 89.1542 96.8057 84.2567 97.4807 78.3333H104.917C104.215 86.3289 100.878 92.9389 94.9041 98.1633C88.9296 103.388 81.8888 106 73.7816 106ZM84.1924 90.09L70.4491 76.5125V57H77.6149V73.4875L89.2049 85.0767L84.1924 90.09Z" fill="white"/>
</svg>
