<svg width="100" height="100" viewBox="0 0 100 100" fill="none" xmlns="http://www.w3.org/2000/svg">
<circle cx="50" cy="50" r="45" fill="#25A6D6"/>
<g style="mix-blend-mode:multiply">
<circle cx="26.5" cy="32.5" r="21.5" fill="#BBBBBB" fill-opacity="0.5"/>
</g>
<g style="mix-blend-mode:multiply">
<circle cx="33.25" cy="68.25" r="9.25" fill="#BABABA" fill-opacity="0.4"/>
</g>
<g style="mix-blend-mode:multiply">
<circle cx="67.5" cy="32.5" r="32.5" fill="#D9D9D9" fill-opacity="0.6"/>
</g>
<path d="M41.4062 62.8125H58.6458V58.6459H41.4062V62.8125ZM41.4062 53.9584H58.5938V49.7917H41.4062V53.9584ZM37.9328 71.4584C36.5082 71.4584 35.2986 70.9611 34.3042 69.9667C33.3097 68.9722 32.8125 67.7627 32.8125 66.338V33.662C32.8125 32.2373 33.3097 31.0278 34.3042 30.0334C35.2986 29.0389 36.5082 28.5417 37.9328 28.5417H54.0625L67.1875 41.6146V66.338C67.1875 67.7627 66.6903 68.9722 65.6958 69.9667C64.7014 70.9611 63.4918 71.4584 62.0672 71.4584H37.9328ZM51.875 43.8542V33.0209H37.9328C37.7724 33.0209 37.6255 33.0877 37.4922 33.2214C37.3585 33.3547 37.2917 33.5016 37.2917 33.662V66.338C37.2917 66.4985 37.3585 66.6453 37.4922 66.7787C37.6255 66.9123 37.7724 66.9792 37.9328 66.9792H62.0672C62.2276 66.9792 62.3745 66.9123 62.5078 66.7787C62.6415 66.6453 62.7083 66.4985 62.7083 66.338V43.8542H51.875Z" fill="white"/>
</svg>
