<svg width="200" height="200" viewBox="0 0 200 200" fill="none" xmlns="http://www.w3.org/2000/svg">
<circle cx="100" cy="100" r="90" fill="#25A6D6"/>
<g style="mix-blend-mode:multiply">
<circle cx="70.5" cy="42.5" r="42.5" fill="#BBBBBB" fill-opacity="0.3"/>
</g>
<g style="mix-blend-mode:multiply">
<circle cx="27.5" cy="147.5" r="17.5" fill="#BABABA" fill-opacity="0.5"/>
</g>
<g style="mix-blend-mode:multiply">
<circle cx="140" cy="140" r="60" fill="#D9D9D9" fill-opacity="0.5"/>
</g>
<g style="mix-blend-mode:multiply">
<ellipse cx="67" cy="10" rx="67" ry="10" transform="matrix(1 0 0 -1 33 190)" fill="#D9D9D9"/>
</g>
<path fill-rule="evenodd" clip-rule="evenodd" d="M114.534 56.8328C113.764 56.8328 112.975 57.1359 112.416 57.6956L57.6954 112.416C56.545 113.566 56.545 115.503 57.6954 116.653L83.3475 142.305C84.4979 143.455 86.4343 143.455 87.5846 142.305L142.367 87.5848C142.367 87.5853 142.367 87.5844 142.367 87.5848C142.949 87.0026 143.168 86.3639 143.168 85.8389V61.0573C143.079 60.017 142.642 59.0528 141.798 58.2433L141.745 58.193C140.861 57.3088 139.631 56.8328 138.447 56.8328H114.534ZM107.585 52.8645C109.509 50.9397 112.074 50.0005 114.534 50.0005H138.447C141.351 50.0005 144.332 51.1311 146.551 53.3355C148.646 55.3551 149.815 57.9492 149.993 60.7122L150 60.8221V85.8389C150 88.2948 148.976 90.6383 147.198 92.416L92.4158 147.136C92.4153 147.137 92.4162 147.136 92.4158 147.136C88.5971 150.953 82.3344 150.954 78.5163 147.136L52.8643 121.484C49.0457 117.666 49.0457 111.403 52.8643 107.585L107.585 52.8645Z" fill="white"/>
<path d="M124.845 81.3668C128.275 81.3668 131.056 78.5859 131.056 75.1556C131.056 71.7253 128.275 68.9445 124.845 68.9445C121.415 68.9445 118.634 71.7253 118.634 75.1556C118.634 78.5859 121.415 81.3668 124.845 81.3668Z" fill="white"/>
</svg>
