<svg width="200" height="200" viewBox="0 0 200 200" fill="none" xmlns="http://www.w3.org/2000/svg">
<circle cx="100" cy="100" r="90" fill="#25A6D6"/>
<g style="mix-blend-mode:multiply">
<circle cx="70.5" cy="42.5" r="42.5" fill="#BBBBBB" fill-opacity="0.3"/>
</g>
<g style="mix-blend-mode:multiply">
<circle cx="27.5" cy="147.5" r="17.5" fill="#BABABA" fill-opacity="0.5"/>
</g>
<g style="mix-blend-mode:multiply">
<circle cx="140" cy="140" r="60" fill="#D9D9D9" fill-opacity="0.5"/>
</g>
<g style="mix-blend-mode:multiply">
<ellipse cx="67" cy="10" rx="67" ry="10" transform="matrix(1 0 0 -1 33 190)" fill="#D9D9D9"/>
</g>
<path d="M92.2262 146.813C90.9547 146.813 89.6897 146.572 88.4314 146.092C87.1724 145.61 86.0255 144.855 84.9908 143.824L56.1127 114.946C55.0592 113.903 54.2908 112.751 53.8075 111.492C53.3248 110.231 53.0835 108.949 53.0835 107.646C53.0835 106.342 53.3248 105.056 53.8075 103.788C54.2908 102.519 55.0592 101.377 56.1127 100.363L92.6512 64.0719C93.6206 63.1038 94.7356 62.3639 95.996 61.8521C97.2557 61.3396 98.5578 61.0833 99.9022 61.0833H128.676C131.614 61.0833 134.062 62.0677 136.02 64.0365C137.978 66.0059 138.956 68.4483 138.956 71.3636V100.346C138.956 101.739 138.696 103.067 138.174 104.329C137.653 105.592 136.904 106.694 135.928 107.638L99.4939 143.824C98.4627 144.855 97.3113 145.61 96.0397 146.092C94.7689 146.572 93.4977 146.813 92.2262 146.813ZM91.321 137.453C91.5877 137.721 91.9016 137.854 92.2627 137.854C92.6231 137.854 92.9366 137.721 93.2033 137.453L129.638 101.099C129.772 100.966 129.865 100.819 129.919 100.658C129.972 100.499 129.998 100.339 129.998 100.178V71.3636C129.998 70.9899 129.871 70.683 129.618 70.4427C129.364 70.2017 129.051 70.0813 128.676 70.0813H99.3418L62.4429 106.693C62.1755 106.959 62.0418 107.273 62.0418 107.633C62.0418 107.994 62.1755 108.308 62.4429 108.575L91.321 137.453ZM118.107 88.4948C119.941 88.4948 121.501 87.857 122.785 86.5813C124.068 85.3049 124.71 83.7552 124.71 81.9323C124.71 80.0983 124.069 78.5396 122.789 77.2563C121.508 75.9722 119.953 75.3302 118.124 75.3302C116.295 75.3302 114.741 75.9705 113.463 77.2511C112.184 78.5316 111.545 80.0868 111.545 81.9167C111.545 83.7458 112.183 85.2997 113.46 86.5781C114.735 87.8559 116.285 88.4948 118.107 88.4948Z" fill="white"/>
</svg>
